<?xml version="1.0" encoding="utf-8"?>
<!-- Generator: Adobe Illustrator 27.5.0, SVG Export Plug-In . SVG Version: 6.00 Build 0)  -->
<svg version="1.1" id="Layer_1" xmlns="http://www.w3.org/2000/svg" xmlns:xlink="http://www.w3.org/1999/xlink" x="0px" y="0px"
	 viewBox="0 0 200 200" style="enable-background:new 0 0 200 200;" xml:space="preserve">
<style type="text/css">
	.st0{fill:#CA99C6;}
	.st1{opacity:0.79;fill:#EECDE3;}
	.st2{fill:#4E4D4D;}
	.st3{fill:#EECDE3;}
	.st4{fill:#CDCC34;stroke:#CDCC34;stroke-width:0.75;stroke-miterlimit:10;}
	.st5{opacity:0.67;fill:#F4E72F;stroke:#FECB39;stroke-width:3;stroke-miterlimit:10;}
	.st6{opacity:0.94;fill:#48AE4D;}
	.st7{font-family:'Arimo-Medium';}
	.st8{font-size:39.2223px;}
	.st9{opacity:0.94;fill:none;stroke:#48AE4D;stroke-width:4;stroke-miterlimit:10;}
</style>
<g id="CERDO">
	<circle class="st0" cx="56.15" cy="119.8" r="4.9"/>
	<path class="st0" d="M125.77,83.52l-3.92,3.92c-21.57-6.86-39.22,0.98-39.22,0.98l-1.96-5.88
		C104.2,70.77,125.77,83.52,125.77,83.52z"/>
	<path class="st1" d="M183.63,105.09c0,0-1.96-5.88-5.88,1.96c0,0-2.94,5.88-7.84,5.88c0,0-18.63-61.78-103.94-34.32
		c0,0-16.67-9.81-34.32-2.94c0,0-1.96,15.69,6.86,26.48c0,0-4.9,6.86-6.86,18.63c0,0-10.79,2.94-14.71,8.83c0,0,0,16.67,9.81,33.34
		c0,0,5.88,1.96,14.71,1.96c0,0,1.81,4.83,6.39,9.76c0.64,0.7,1.33,1.39,2.1,2.08c20.52,3.43,92.53,11.37,123.54-38.95
		c0.02-0.21,0.04-0.42,0.06-0.64c0.19-2.09,0.28-4.28,0.28-6.57C173.82,130.59,188.53,119.8,183.63,105.09z M19.87,133.53
		c-0.98-1.96,0-5.88,0-5.88c2.94-2.94,10.79-3.92,10.79-3.92C24.78,125.69,19.87,133.53,19.87,133.53z M39.48,97.25
		c-7.84-9.81-5.88-20.59-5.88-20.59c6.86-2.94,8.83-0.98,8.83-0.98C36.54,84.5,39.48,97.25,39.48,97.25z M125.77,83.52l-3.92,3.92
		c-21.57-6.86-39.22,0.98-39.22,0.98l-1.96-5.88C104.2,70.77,125.77,83.52,125.77,83.52z M56.15,114.9c2.71,0,4.9,2.2,4.9,4.9
		s-2.2,4.9-4.9,4.9s-4.9-2.2-4.9-4.9S53.45,114.9,56.15,114.9z"/>
	<path class="st0" d="M19.87,127.65c2.94-2.94,10.79-3.92,10.79-3.92c-5.88,1.96-10.79,9.81-10.79,9.81
		C18.89,131.57,19.87,127.65,19.87,127.65z"/>
	<path class="st0" d="M42.43,75.68c-5.88,8.83-2.94,21.57-2.94,21.57c-7.84-9.81-5.88-20.59-5.88-20.59
		C40.46,73.72,42.43,75.68,42.43,75.68z"/>
	<circle class="st2" cx="56.15" cy="119.8" r="4.9"/>
	<path class="st2" d="M82.63,88.42l-1.96-5.88c23.53-11.77,45.11,0.98,45.11,0.98l-3.92,3.92C100.28,80.58,82.63,88.42,82.63,88.42z
		"/>
	<path class="st0" d="M173.48,137.8c-2.46,25.22-17.31,35.94-17.31,35.94c0,9.81-2.97,24.02-2.97,24.02c-7.86,1.47-19.49,0-19.49,0
		c-1.87-5.39-1.07-9.32-1.07-9.32c-23.53,12.75-59.81,1.96-59.81,1.96c0,5.88-1.72,7.35-1.72,7.35c-8.57,2.45-16.62,0-16.62,0
		c-2.65-6.37-2.26-19.12-2.26-19.12c-0.81-0.62-1.58-1.25-2.29-1.89C70.46,180.17,142.46,188.12,173.48,137.8z"/>
	<path class="st3" d="M39.48,97.25c-7.84-9.81-5.88-20.59-5.88-20.59c6.86-2.94,8.83-0.98,8.83-0.98
		C36.54,84.5,39.48,97.25,39.48,97.25z"/>
	<path class="st3" d="M30.66,123.72c-5.88,1.96-10.79,9.81-10.79,9.81c-0.98-1.96,0-5.88,0-5.88
		C22.81,124.7,30.66,123.72,30.66,123.72z"/>
</g>
<g id="MONEDA">
	<circle class="st4" cx="102.73" cy="32.04" r="30.89"/>
	<circle class="st5" cx="102.73" cy="32.04" r="24.02"/>
	<text transform="matrix(1 0 0 1 90.1196 45.6782)" class="st6 st7 st8">S</text>
	<line class="st9" x1="102.73" y1="14.39" x2="102.73" y2="19.29"/>
	<line class="st9" x1="103.19" y1="44.85" x2="103.19" y2="49.75"/>
</g>
</svg>
