<?xml version="1.0" encoding="utf-8"?>
<!-- Generator: Adobe Illustrator 27.5.0, SVG Export Plug-In . SVG Version: 6.00 Build 0)  -->
<svg version="1.1" id="Layer_1" xmlns="http://www.w3.org/2000/svg" xmlns:xlink="http://www.w3.org/1999/xlink" x="0px" y="0px"
	 viewBox="0 0 200 200" style="enable-background:new 0 0 200 200;" xml:space="preserve">
<style type="text/css">
	.st0{fill:url(#SVGID_1_);}
	.st1{fill:none;stroke:#EC661B;stroke-width:20;stroke-miterlimit:10;stroke-dasharray:1,20,1,20;}
	.st2{fill:#EC671B;}
	.st3{fill:none;stroke:url(#SVGID_00000038398434685497842810000014688344003342220953_);stroke-width:4;stroke-miterlimit:10;}
	.st4{fill:#2E3959;}
	.st5{fill:#5560A9;}
	.st6{fill:#2E3959;stroke:#EDEDED;stroke-linecap:round;stroke-miterlimit:10;}
	.st7{fill:#EDEDED;}
	.st8{fill:#CCD0D0;}
	.st9{fill:#B4AFB2;}
</style>
<linearGradient id="SVGID_1_" gradientUnits="userSpaceOnUse" x1="1.8294" y1="136.3978" x2="196.9652" y2="136.3978">
	<stop  offset="0" style="stop-color:#ACCA28"/>
	<stop  offset="1" style="stop-color:#79AD37"/>
</linearGradient>
<path class="st0" d="M196.97,100.74c0,53.86-43.69,97.54-97.57,97.54c-53.89,0-97.57-43.67-97.57-97.54c0-1.01,0.02-2.02,0.05-3.03
	c6.98-12.56,22.29-31.46,47.3-19.25c35.87,17.5,42.76,31.84,71.17,30.69c28.41-1.15,50.79-23.24,63.99-23.24
	c5.62,0,9.36,0.99,11.81,2.12C196.69,92.19,196.97,96.43,196.97,100.74z"/>
<path class="st1" d="M179.31,53.55c-8.38,7.22-19.61,11.22-31.6,10.23c-23.52-1.93-41.03-22.3-39.13-45.47
	c0.46-5.56,1.99-10.77,4.37-15.46"/>
<path class="st2" d="M179.31,44.97c-6.72,6.93-16.14,11.24-26.56,11.24c-20.45,0-37.02-16.57-37.02-37.01
	c0-4.9,0.95-9.58,2.68-13.85C143.49,10.27,165.12,24.81,179.31,44.97z"/>
<linearGradient id="SVGID_00000062175468411530923500000017890985613249511326_" gradientUnits="userSpaceOnUse" x1="0.3677" y1="100.1414" x2="199.5008" y2="100.1414">
	<stop  offset="0" style="stop-color:#ACCA28"/>
	<stop  offset="1" style="stop-color:#79AD37"/>
</linearGradient>
<ellipse style="fill:none;stroke:url(#SVGID_00000062175468411530923500000017890985613249511326_);stroke-width:4;stroke-miterlimit:10;" cx="99.93" cy="100.14" rx="97.57" ry="97.54"/>
<path class="st4" d="M86,163.32l-23.64,6.31l-21.48-30.15l-16.22,19.19v-4.8l15.27-18.5c0.42-0.51,1.12-0.75,1.51-0.22l21.52,29.89
	l22.83-5.51L86,163.32z"/>
<polygon class="st5" points="85.78,159.53 62.81,165.38 41.07,134.86 64.84,131.89 "/>
<path class="st5" d="M140.29,92.96l-36.41,1.73l-53.65,2.55l54.2,68.01l80.54-25.12L140.29,92.96z"/>
<g>
	<polygon class="st4" points="104.43,165.25 104.36,171.03 50.2,102.16 17.18,148.76 17.14,144.09 50.2,97.23 	"/>
</g>
<polygon class="st4" points="185.09,143.63 104.35,171.04 104.27,165.29 184.94,140.13 "/>
<g>
	<path class="st6" d="M103.73,115.93l-20.34,2.53h-0.01l-10.93-13.52c-1.16-1.43,0.09-2.72,2.72-2.88l15.95-1L103.73,115.93z"/>
	<polygon class="st6" points="117.01,131.6 97.17,135.51 83.39,118.46 103.73,115.93 	"/>
	<polygon class="st6" points="121.27,113.74 103.73,115.93 91.14,101.05 109.1,99.92 	"/>
	<polygon class="st6" points="136.54,111.84 121.27,113.74 109.1,99.92 124.8,98.94 	"/>
	<polygon class="st6" points="161.79,122.8 148.84,125.35 136.54,111.84 149.96,110.17 	"/>
	<path class="st6" d="M149.96,110.17l-13.42,1.67l-11.74-12.9l10.95-0.69c1.6-0.1,3.7,0.69,4.71,1.77L149.96,110.17z"/>
	<path class="st6" d="M171.58,136.74l-9.85,2.78l-12.89-14.17l12.96-2.54l10.3,11C173.24,135.03,173.02,136.34,171.58,136.74z"/>
	<polygon class="st6" points="161.73,139.52 147.49,143.52 134.05,128.26 148.84,125.35 	"/>
	<polygon class="st6" points="147.49,143.52 131.03,148.16 117.01,131.6 134.05,128.26 	"/>
	<path class="st6" d="M131.03,148.16l-14.77,4.16c-2.45,0.69-5.59-0.1-6.94-1.77l-12.15-15.04l19.85-3.9L131.03,148.16z"/>
	<polygon class="st6" points="148.84,125.35 134.05,128.26 121.27,113.74 136.54,111.84 	"/>
	<polygon class="st6" points="134.05,128.26 117.01,131.6 103.73,115.93 121.27,113.74 	"/>
</g>
<path class="st7" d="M138.78,96.47l-71.98,4.57l44.33,54.37l65.24-18.79L138.78,96.47z M171.58,136.74l-9.85,2.78l-14.24,4
	l-16.46,4.64l-14.77,4.16c-2.45,0.69-5.59-0.1-6.94-1.77l-12.15-15.04l-13.77-17.04h-0.01l-10.93-13.52
	c-1.16-1.43,0.09-2.72,2.72-2.88l15.95-1l17.96-1.13l15.7-0.99l10.95-0.69c1.6-0.1,3.7,0.69,4.71,1.77l9.51,10.15l11.83,12.64
	l10.3,11C173.24,135.03,173.02,136.34,171.58,136.74z"/>
<polygon class="st8" points="111.12,155.41 110.16,157.46 66.15,103.44 66.8,101.04 "/>
<polygon class="st9" points="176.36,136.62 175.68,138.5 110.16,157.46 111.12,155.41 "/>
</svg>
