<?xml version="1.0" encoding="utf-8"?>
<!-- Generator: Adobe Illustrator 27.5.0, SVG Export Plug-In . SVG Version: 6.00 Build 0)  -->
<svg version="1.1" id="Layer_1" xmlns="http://www.w3.org/2000/svg" xmlns:xlink="http://www.w3.org/1999/xlink" x="0px" y="0px"
	 viewBox="0 0 200 50" style="enable-background:new 0 0 200 50;" xml:space="preserve">
<style type="text/css">
	.st0{fill:none;stroke:#000000;stroke-width:0.75;stroke-miterlimit:10;}
	.st1{fill:none;stroke:#000000;stroke-width:0.75;stroke-linecap:round;stroke-miterlimit:10;}
	.st2{fill:#EC671B;stroke:#EC671B;stroke-width:3;stroke-miterlimit:10;}
	.st3{fill:#EF785A;stroke:#EC671B;stroke-width:3;stroke-miterlimit:10;}
	.st4{fill:#79AD37;}
</style>
<path class="st0" d="M95.16,28.67c1.28-1.24,1.37-3.87,1.37-3.87"/>
<path class="st0" d="M96.62,23.37c0,0-0.4-0.14-0.95-0.29"/>
<path class="st1" d="M97.04,20.31c-0.27,0.52-0.86,0.91-1.48,1.17"/>
<path class="st1" d="M86.45,8.22c0,0-0.55,0.44-1.31,0.92"/>
<path class="st0" d="M75.01,9.77c-0.47-0.51-0.54-0.72-0.02-0.45"/>
<path class="st0" d="M66.06,20.91c-0.67,0.05-1.21,0.15-1.21,0.15"/>
<g>
	<g>
		<path class="st2" d="M8.85,40.7c0.31-4.36,0.58-9.98,0.83-16.88c0.25-6.89,0.37-12.24,0.37-16.06c3.57,0.02,6.92,0.02,10.06,0.02
			l8.81-0.02c-0.06,0.64-0.1,1.21-0.1,1.71L26.9,9.32c-0.5-0.05-1.37-0.08-2.61-0.09c-1.24-0.01-2.45-0.01-3.64-0.01
			c-3.81,0-6.71,0.01-8.69,0.02l-0.49,13.85c2.43,0.05,4.66,0.07,6.69,0.07c2.41,0,5.39-0.02,8.93-0.07
			c-0.06,0.48-0.1,1.01-0.12,1.59l-9.1-0.07c-1.06,0-3.22,0.02-6.47,0.07l-0.49,14.5l6.92,0.02c2.72,0,4.6-0.01,5.65-0.04
			c1.05-0.02,2.49-0.08,4.3-0.18c-0.08,0.64-0.12,1.21-0.12,1.71c-3.86-0.02-6.68-0.02-8.47-0.02L8.85,40.7z"/>
		<path class="st3" d="M59.01,38.14c-0.13,0.56-0.23,1.22-0.31,1.98c-1.64,0.4-3.18,0.68-4.62,0.84c-1.44,0.16-2.73,0.24-3.87,0.24
			c-2.35,0-4.58-0.38-6.68-1.13c-2.11-0.76-3.92-1.88-5.43-3.37c-1.51-1.49-2.62-3.25-3.33-5.3c-0.71-2.04-1.06-4.19-1.06-6.44
			c0-2.51,0.41-4.94,1.24-7.29c0.83-2.35,2.04-4.3,3.63-5.85c1.59-1.55,3.5-2.7,5.73-3.45c2.23-0.75,4.6-1.12,7.13-1.12
			c0.85,0,1.77,0.04,2.76,0.12c0.99,0.08,1.8,0.17,2.44,0.27c0.64,0.1,1.48,0.26,2.55,0.48c0.03,0.66,0.1,1.35,0.22,2.07
			c-1.77-0.58-3.3-0.97-4.58-1.16c-1.28-0.19-2.52-0.29-3.71-0.29c-2.08,0-4.07,0.32-5.99,0.97c-1.92,0.64-3.61,1.68-5.07,3.1
			c-1.47,1.42-2.59,3.18-3.37,5.28c-0.78,2.1-1.17,4.27-1.17,6.5c0,2.16,0.32,4.21,0.97,6.16c0.64,1.95,1.63,3.59,2.95,4.91
			c1.32,1.32,2.89,2.32,4.71,3c1.82,0.68,3.81,1.03,5.97,1.03C52.75,39.71,55.73,39.19,59.01,38.14z"/>
		<path class="st4" d="M95.68,23.86c0,1.67-0.18,3.27-0.52,4.82c-0.29,0.28-0.64,0.49-1.07,0.58c-2.3,0.48-2.06,2.64-2.06,2.64
			c-0.38,3.69-3.88,4.88-3.6,2.96c0.29-1.91-0.52-2.59-0.52-2.59c-2.2-0.71-0.86-2.58-0.43-2.82c0.43-0.24,0.53-2.68-2.01-3.07
			c-2.54-0.38-0.77-4.21,1.43-2.92c2.2,1.29,4.55,0.14,5.37-0.58c0.54-0.48,2.29-0.11,3.4,0.19C95.68,23.34,95.68,23.6,95.68,23.86z
			"/>
		<path class="st4" d="M95.55,21.48c-1.04,0.43-2.18,0.48-2.18,0.12c0-0.6-1.24-0.45-1.59-0.44c-0.01,0-0.02,0-0.03,0.01
			c0,0.01-0.01,0.01-0.01,0.02c-0.11,0.48-0.3,0.82-0.72,1.11c-0.34,0.24-0.75,0.39-1.15,0.49c-0.45,0.11-0.96,0.1-1.38-0.11
			c-0.19-0.09-0.35-0.22-0.47-0.39c-0.07-0.1-0.1-0.24-0.13-0.36c-0.02-0.08-0.06-0.16-0.13-0.19c-0.03-0.01-0.05-0.01-0.07-0.02
			c-0.45-0.1-0.89-0.26-1.32-0.41c-1.57-0.54-1.69-2.34-1.59-3.74c-1.28,0.38-2.95,0.7-3.92-0.48c-0.04-0.05-0.08-0.1-0.1-0.15
			c-0.03-0.12,0.01-0.23,0.07-0.34c0.23-0.45,0.67-0.9,1.04-1.23c-0.3-0.43-1.89-1.37-1.11-2.03c0.49-0.42,1.14-0.6,1.67-0.95
			c0.03-0.02,0.05-0.04,0.05-0.07c0.01-0.06-0.06-0.09-0.12-0.1c-0.5-0.11-0.99-0.54-1.06-1.06c-0.06-0.53,0.46-0.73,0.89-0.76
			c0.88-0.05,2.05-0.68,2.93-1.25c0.67,0.14,1.32,0.32,1.97,0.53c1.83,0.61,3.42,1.61,4.76,2.98c1.34,1.38,2.31,3.05,2.91,5.01
			C95.16,18.89,95.42,20.16,95.55,21.48z"/>
		<path class="st4" d="M80.84,29.58c-2.44,0.25-2.41,2.41-2.41,2.41c1.4,1.79,1.11,2.87,0.69,2.98c-0.47,0.12-0.9,0.75-1.2,1.08
			c-0.05,0.05-0.1,0.1-0.12,0.16c-0.03,0.08-0.03,0.16-0.02,0.24c0.01,0.73-0.38,1.36-0.86,1.89c-1.11,1.26-1.47-0.83-1.47-1.22
			c0-0.4,0.72-1.11,0.79-1.98c0.08-0.86-0.86-1.08-1.26-1.54c-0.4-0.47,0.29-1.26,0.29-1.26c-0.34-0.49-0.4-1.1-0.49-1.67
			c-0.01-0.05-0.01-0.12,0.01-0.17c0.03-0.07,0.1-0.11,0.15-0.15c0.56-0.38,0.83-1,0.95-1.65c0.03-0.15,0.25-1.72,0.12-1.76
			c-0.73-0.23-1.7-1.37-1.54-2.18c0.14-0.75-1.48-1.26-1.48-1.26c-2.98,0.79-4.02-0.72-4.45-1.91c-0.25-0.7-1.52-0.76-2.49-0.7
			c0.16-0.8,0.36-1.59,0.62-2.37c0.68-2.08,1.74-3.89,3.19-5.43c1.45-1.54,3.16-2.64,5.12-3.33c0.01,0,0.01,0,0.01-0.01
			c0.34,0.38,0.92,0.95,1.63,1.63c1.35,1.28-0.83,3.66-0.83,3.66l0.86,0.58c2.73,2.11-0.72,5.78-0.72,5.78
			c0.43,0.65,0.29,1.72,0.29,1.72c-1.08,2.09,0.58,2.05,0.75,1.65c0.18-0.39,2.41-0.25,2.41-0.25c0.82-1.29,2.15-0.57,2.11,0
			c-0.03,0.58-0.03,1.41-0.03,1.41s1.26,0.97,1.4,1.18C83.03,27.36,83.28,29.33,80.84,29.58z"/>
		<path class="st3" d="M96.51,17.04c-0.65-2.02-1.74-3.81-3.27-5.37c-1.53-1.56-3.31-2.68-5.37-3.38c-2.05-0.69-4.23-1.04-6.53-1.04
			c-2.42,0-4.72,0.37-6.92,1.1c-2.2,0.74-4.1,1.89-5.68,3.45s-2.79,3.53-3.63,5.9c-0.84,2.37-1.26,4.82-1.26,7.34
			c0,2.25,0.34,4.41,1.02,6.46c0.69,2.05,1.76,3.8,3.23,5.26c1.46,1.45,3.28,2.56,5.45,3.31c2.18,0.75,4.44,1.12,6.81,1.12
			c2.46,0,4.81-0.4,7.06-1.21c2.24-0.8,4.11-1.98,5.61-3.54c1.5-1.56,2.61-3.49,3.36-5.79c0.74-2.3,1.11-4.7,1.11-7.19
			C97.5,21.21,97.17,19.06,96.51,17.04z M95.16,28.67c-0.13,0.57-0.28,1.13-0.45,1.69c-0.65,2.05-1.69,3.81-3.1,5.27
			c-1.41,1.46-3.07,2.51-5,3.14c-1.92,0.62-3.97,0.94-6.12,0.94c-2.05,0-3.99-0.28-5.83-0.84c-1.84-0.56-3.45-1.49-4.82-2.77
			c-1.37-1.29-2.4-2.91-3.12-4.87c-0.71-1.96-1.06-4.01-1.06-6.16c0-1.42,0.13-2.81,0.39-4.16c0.16-0.8,0.36-1.59,0.62-2.37
			c0.68-2.08,1.74-3.89,3.19-5.43c1.45-1.54,3.16-2.64,5.12-3.33c0.01,0,0.01,0,0.01-0.01c1.96-0.68,4.05-1.02,6.27-1.02
			c1.34,0,2.63,0.13,3.87,0.38c0.67,0.14,1.32,0.32,1.97,0.53c1.83,0.61,3.42,1.61,4.76,2.98c1.34,1.38,2.31,3.05,2.91,5.01
			c0.38,1.23,0.64,2.5,0.78,3.82c0.06,0.53,0.1,1.06,0.12,1.61c0.01,0.26,0.01,0.51,0.01,0.78C95.68,25.52,95.51,27.13,95.16,28.67z
			"/>
		<path class="st3" d="M100.7,28.91c0.08-0.67,0.12-1.25,0.12-1.74c1.75,0.08,3.68,0.12,5.79,0.12c2.04,0,3.98-0.04,5.81-0.12
			c-0.08,0.65-0.12,1.23-0.12,1.74c-1.75-0.1-3.71-0.14-5.86-0.14C104.44,28.76,102.53,28.81,100.7,28.91z"/>
		<path class="st3" d="M115.2,40.7l0.51-7.65l0.63-17.3l0.14-7.99c0.4,0.02,0.75,0.02,1.05,0.02c0.32,0,0.68-0.01,1.07-0.02
			l-0.85,18.82l-0.45,12.59l4.94,0.02c3.54,0,5.97-0.02,7.31-0.05c1.33-0.03,2.64-0.09,3.91-0.17c-0.06,0.64-0.1,1.21-0.1,1.71
			c-3.41-0.02-6.28-0.02-8.61-0.02L115.2,40.7z"/>
		<path class="st3" d="M137.52,40.7l0.53-9.68l0.48-14.5l0.1-5.02c0.02-1.34,0.02-2.58,0.02-3.74c0.42,0.02,0.78,0.02,1.09,0.02
			c0.32,0,0.68-0.01,1.09-0.02l-0.45,8.73l-0.57,17.97l-0.12,6.22c-0.4-0.02-0.76-0.02-1.09-0.02
			C138.29,40.68,137.92,40.68,137.52,40.7z"/>
		<path class="st3" d="M147.8,40.7l0.43-8.4l0.5-16.17l0.1-4.78c0.02-1.17,0.02-2.37,0.02-3.59c3.36,0.02,6.57,0.02,9.63,0.02
			l8.4-0.02c-0.06,0.64-0.1,1.21-0.1,1.71c-1.38-0.13-2.94-0.2-4.67-0.21c-1.73-0.02-3.3-0.03-4.72-0.03h-6.66l-0.43,13.9l5.14,0.07
			c4.37,0,7.62-0.02,9.75-0.07c-0.06,0.47-0.1,1.02-0.12,1.66l-4.29-0.05c-1.69-0.03-3.02-0.05-4-0.05c-2.07,0-4.26,0.03-6.56,0.1
			c-0.2,6.9-0.29,12.2-0.29,15.9c-0.4-0.02-0.76-0.02-1.06-0.02C148.56,40.68,148.2,40.68,147.8,40.7z"/>
		<path class="st3" d="M172.39,40.7c0.31-4.36,0.58-9.98,0.83-16.88s0.37-12.24,0.37-16.06c3.57,0.02,6.92,0.02,10.06,0.02
			l8.81-0.02c-0.06,0.64-0.1,1.21-0.1,1.71l-1.93-0.16c-0.5-0.05-1.37-0.08-2.61-0.09c-1.24-0.01-2.45-0.01-3.64-0.01
			c-3.81,0-6.71,0.01-8.69,0.02l-0.49,13.85c2.43,0.05,4.66,0.07,6.69,0.07c2.41,0,5.39-0.02,8.93-0.07
			c-0.06,0.48-0.1,1.01-0.12,1.59l-9.1-0.07c-1.06,0-3.22,0.02-6.47,0.07l-0.48,14.5l6.92,0.02c2.72,0,4.6-0.01,5.65-0.04
			c1.05-0.02,2.49-0.08,4.3-0.18c-0.08,0.64-0.12,1.21-0.12,1.71c-3.86-0.02-6.68-0.02-8.47-0.02L172.39,40.7z"/>
	</g>
</g>
</svg>
