<?xml version="1.0" encoding="utf-8"?>
<!-- Generator: Adobe Illustrator 27.5.0, SVG Export Plug-In . SVG Version: 6.00 Build 0)  -->
<svg version="1.1" id="Layer_1" xmlns="http://www.w3.org/2000/svg" xmlns:xlink="http://www.w3.org/1999/xlink" x="0px" y="0px"
	 viewBox="0 0 200 200" style="enable-background:new 0 0 200 200;" xml:space="preserve">
<style type="text/css">
	.st0{fill:#603914;stroke:#020203;stroke-width:4;stroke-linejoin:round;stroke-miterlimit:10;}
	.st1{fill:#746458;stroke:#020203;stroke-width:4;stroke-linecap:round;stroke-linejoin:round;stroke-miterlimit:10;}
	.st2{fill:#808181;stroke:#020203;stroke-width:4;stroke-linejoin:round;stroke-miterlimit:10;}
	.st3{fill:#9A9999;stroke:#020203;stroke-width:4;stroke-linejoin:round;stroke-miterlimit:10;}
	.st4{fill:#343434;stroke:#020203;stroke-width:4;stroke-linejoin:round;stroke-miterlimit:10;}
	.st5{fill:#676767;}
	.st6{fill:none;stroke:#E52521;stroke-width:11;stroke-linejoin:round;stroke-miterlimit:10;}
</style>
<g id="fabrica">
	<rect x="15.64" y="151.66" class="st0" width="154.11" height="26"/>
	<polygon class="st1" points="23.07,95.03 95.49,95.03 95.49,151.66 23.07,151.66 23.07,95.03 	"/>
	<rect x="37.93" y="119.16" class="st2" width="42.71" height="32.64"/>
	<polygon class="st1" points="95.58,109.06 148.4,109.06 148.4,151.66 95.49,151.66 	"/>
	<rect x="108.48" y="121.95" class="st3" width="27.85" height="15.78"/>
	<polygon class="st4" points="111.27,108.95 106.63,54.18 92.7,54.18 88.99,95.03 95.49,95.03 95.49,109.06 	"/>
	<polygon class="st4" points="142.41,109.25 143.76,65.32 161.4,65.32 163.26,151.66 148.4,151.66 148.4,109.25 	"/>
	<path class="st5" d="M106.54,29.84c0,0-9.48,0.73-6.56,8.75c2.92,8.02,11.67,2.19,10.94,0c0,0,13.13,8.02,13.85-3.65
		c0,0,11.67,0,6.56-8.02c-5.1-8.02-10.21-3.65-10.94-0.73C120.39,26.19,108,18.9,106.54,29.84z"/>
	<path class="st5" d="M154.53,38.65c0,0-10.63,0.82-7.36,9.81c3.27,8.99,13.08,2.45,12.26,0c0,0,14.72,8.99,15.53-4.09
		c0,0,13.08,0,7.36-8.99c-5.72-8.99-11.45-4.09-12.26-0.82C170.06,34.56,156.17,26.39,154.53,38.65z"/>
</g>
<g id="prohibido">
	<circle class="st6" cx="99.71" cy="100" r="92.84"/>
	<line class="st6" x1="35.4" y1="33.45" x2="166.44" y2="164.5"/>
</g>
</svg>
