<?xml version="1.0" encoding="utf-8"?>
<!-- Generator: Adobe Illustrator 27.5.0, SVG Export Plug-In . SVG Version: 6.00 Build 0)  -->
<svg version="1.1" id="Layer_1" xmlns="http://www.w3.org/2000/svg" xmlns:xlink="http://www.w3.org/1999/xlink" x="0px" y="0px"
	 viewBox="0 0 200 200" style="enable-background:new 0 0 200 200;" xml:space="preserve">
<style type="text/css">
	.st0{opacity:0.72;fill:#BDCCD4;}
	.st1{fill:#BDCCD4;stroke:#F9B03D;stroke-width:3;stroke-miterlimit:10;}
	.st2{fill:#FFFFFF;stroke:#CDCCCC;stroke-width:0.5;stroke-miterlimit:10;}
	.st3{fill:#C69C6C;stroke:#C69C6C;stroke-miterlimit:10;}
	.st4{fill:#4E4D4D;stroke:#4E4D4D;stroke-miterlimit:10;}
	.st5{fill:#9A9999;stroke:#9A9999;stroke-miterlimit:10;}
	.st6{fill:none;stroke:#020203;stroke-miterlimit:10;}
	.st7{opacity:0.82;fill:#BDCCD4;stroke:#676767;stroke-miterlimit:10;}
	.st8{opacity:0.81;fill:#BDCCD4;stroke:#676767;stroke-miterlimit:10;}
	.st9{fill:none;stroke:#F9B03D;stroke-width:2;stroke-miterlimit:10;}
	.st10{fill:#FFFFFF;stroke:#808181;stroke-miterlimit:10;}
	.st11{opacity:0.81;fill:#F2F2F2;stroke:#676767;stroke-miterlimit:10;}
	.st12{opacity:0.86;fill:#BDCCD4;stroke:#808181;stroke-miterlimit:10;}
	.st13{fill:#BDCCD4;}
	.st14{fill:#BDCCD4;stroke:#F9B03D;stroke-width:2;stroke-miterlimit:10;}
	.st15{fill:#9A9999;stroke:#676767;stroke-miterlimit:10;}
	.st16{fill:#9999CC;stroke:#808181;stroke-miterlimit:10;}
</style>
<g>
	<path class="st0" d="M69.23,146.65l-0.58,0.2l0.86-2.15c0,0,30.06-24.49,33.4-32.28l3.04-1.52
		C98.02,123.66,69.23,146.65,69.23,146.65z"/>
	<path class="st1" d="M139.39,76.49c-19.92,16.89-20.88,14.37-20.88,13.75c0-0.06,0.01-0.11,0.01-0.11l-7.61-7.61
		c0,0-0.04,0.01-0.11,0.01c-0.63,0-3.14-0.96,13.75-20.88c0,0,5.12,1.37,8.92,5.38c0.09,0.09,0.18,0.19,0.26,0.29
		c0.1,0.08,0.19,0.17,0.29,0.26C138.02,71.37,139.39,76.49,139.39,76.49z"/>
	<path class="st0" d="M93.12,107.73l-0.02,0.02c-0.03-0.03-0.06-0.05-0.09-0.08l0.02-0.02L93.12,107.73z"/>
	<path class="st1" d="M118.2,90.54c0,0.63,0.96,3.14,20.88-13.75c10.85-1.39,9.74,7.51,9.74,7.51
		c-17.57,7.14-41.25,22.32-41.9,22.73c-0.16-1.94-1.11-4.78-4.39-8.15c-0.03-0.03-0.07-0.07-0.11-0.11
		c-0.03-0.03-0.06-0.06-0.09-0.09l-0.09-0.09l0,0c-0.03-0.04-0.07-0.07-0.11-0.11l0.12-0.12c0.03,0.04,0.06,0.08,0.1,0.11
		c0.03,0.03,0.06,0.07,0.08,0.1c0.03,0.03,0.07,0.06,0.1,0.08c0.04,0.03,0.08,0.07,0.11,0.1l-0.03,0.03
		c0.63,0.76,1.46,1.76,2.51,3.03l9.74-9.74c0,0,0.19,0.15,0.47,0.32l0.64-0.32c0,0,1.67,0,1.39-1.39"/>
	<path class="st2" d="M151.61,118.82c-22.54,6.4-32,8.63-45.36,20.32c0,0-15.31,14.19-16.98,14.75c-0.97,0.32-3.7,1.29-6.31,2
		l1.58-3.39l3.06-0.83c0,0,21.43-20.87,30.89-25.88c9.46-5.01,27.55-10.3,37.29-13.92c9.74-3.62,24.77-13.64,27.27-40.08
		c0,0,2.78-6.12,2.78-7.24l1.02,12.21c-0.67,4.4-1.88,9.06-3.8,13.95C183.05,90.71,174.15,112.41,151.61,118.82z"/>
	<path class="st3" d="M42.28,177.49l-2,0.88c0,0-4.29-2.38-9.78-8.03l1.84-1.84c0.02,0.02,0.03,0.02,0.03,0.02s0.31,0.29,0.84,0.78
		l0.02,0.02c2.64,2.67,5.18,4.87,7.05,6.4c0,0,0.01,0.01,0.01,0.01C41,176.35,41.67,176.95,42.28,177.49z"/>
	<path class="st4" d="M55.8,175.78l-2.37,2.37c0,0-3.68,0.77-10.08-0.06c0,0-1.2-0.86-3.05-2.37c0,0,0,0-0.01-0.01
		c-2.65-2.37-5.62-5.09-7.05-6.4l-0.02-0.02c-0.28-0.28-0.55-0.56-0.83-0.85l7.24-7.24c0.03,0.02,0.06,0.04,0.07,0.05
		c2.59,2.67,8,7.83,12.02,11.29c0.05,0.05,0.11,0.09,0.16,0.14C53.5,174.08,54.91,175.23,55.8,175.78z"/>
	<path class="st5" d="M56.28,175.96c-0.75-0.3-2.39-1.57-4.39-3.28c-0.05-0.04-0.11-0.09-0.16-0.14
		c-5.04-4.41-12.01-11.28-12.01-11.28s0,0-0.01-0.01c-0.02-0.02-0.04-0.04-0.06-0.06l1.15-1.15c1.05,1.07,2.07,2.11,3.07,3.09
		l0.13,0.13c3.92,3.93,9.39,9.13,12.72,11.07c0.01,0.01,0.02,0.01,0.03,0.02c1.14,0.75,1.86,1.03,2.03,0.77
		C58.79,175.13,59.06,177.07,56.28,175.96z"/>
	<path class="st4" d="M58.79,175.13c-0.5,0-1.2-0.28-2.03-0.77c-0.01,0-0.02-0.01-0.03-0.02c-2.55-1.68-7.22-5.65-12.72-11.07
		l-0.13-0.13c-1.21-1.21-2.26-2.29-3.05-3.11l3.3-3.3c3.68,3.8,13.25,12.82,16.19,14.54l-1.32,1.32
		C58.99,172.59,59.47,174.1,58.79,175.13z"/>
	<path class="st5" d="M60.75,171.49c-0.12-0.05-0.27-0.12-0.43-0.22l0.02-0.02c-6-4.26-15.86-14.17-16.21-14.52l1.13-1.13
		c4.82,5.25,9.74,9.69,13.23,12.38c0.1,0.08,0.2,0.16,0.3,0.23c0.1,0.08,0.2,0.15,0.3,0.23c0.04,0.03,0.09,0.07,0.13,0.1
		c0.11,0.08,0.21,0.16,0.32,0.24c0.11,0.08,0.21,0.15,0.31,0.22c1.91,1.37,3.17,2,3.41,1.66C63.25,170.66,63.53,172.61,60.75,171.49
		z"/>
	<g>
		<line class="st6" x1="44.12" y1="156.73" x2="44.12" y2="156.73"/>
		<path class="st4" d="M63.25,170.66c-0.76,0-1.96-0.63-3.41-1.66c-0.1-0.07-0.21-0.14-0.31-0.22c-0.11-0.08-0.21-0.16-0.32-0.24
			c-0.04-0.03-0.09-0.07-0.13-0.1c-0.1-0.08-0.2-0.15-0.3-0.23c-4.51-3.47-10.67-9.72-13.49-12.66l3.01-3.01
			c0.05,0.06,0.11,0.11,0.17,0.18c0.07,0.08,0.15,0.16,0.24,0.25c2.04,2.17,8.15,8.45,15.51,14.27l-1.11,1.11
			C63.11,168.35,63.95,169.62,63.25,170.66z"/>
	</g>
	<path class="st5" d="M65.2,167.6c-0.21-0.09-0.5-0.25-0.85-0.48c-3.3-2.2-12.03-10.43-15.64-14.14c-0.09-0.09-0.17-0.18-0.24-0.25
		c-0.06-0.07-0.12-0.13-0.16-0.18l1.17-1.17c3.64,3.8,14.21,14.57,17.86,15.34c0.01,0,0.01,0,0.01,0c0.19,0.06,0.31,0.07,0.36,0.04
		C67.7,166.76,67.98,168.71,65.2,167.6z"/>
	<path class="st4" d="M67.7,166.76c-0.11,0-0.23-0.01-0.36-0.04c0,0-0.01,0-0.01,0c-1.4-0.43-6.6-3.44-17.7-15.36
		c-0.02-0.02-0.04-0.05-0.06-0.07l3.08-3.08c1.11,1.16,2.86,2.88,4.83,4.75l0.03,0.03c3.59,3.48,8.34,7.9,11.18,9.8L67,164.46
		C67,164.46,68.13,166.56,67.7,166.76z"/>
	<path class="st5" d="M69.6,163.04c-1.62-0.65-7.38-5.81-11.97-10.19l-0.03-0.03c-2.74-2.65-4.79-4.75-4.79-4.75
		s-0.01-0.01-0.02-0.02l1.16-1.16c3.85,4.01,14.95,15.3,18.16,15.3C72.1,162.21,72.38,164.15,69.6,163.04z"/>
	<path class="st4" d="M76.47,157.78l-4.73,4.73c-1.1,0.12-4.63-2.79-8.35-6.12c-4.75-4.26-9.46-9.46-9.46-9.46l4.94-4.94
		c0.35,0.39,0.87,0.94,1.53,1.6l0.04,0.04c3.28,3.53,7.17,7.04,10.29,9.7c0.09,0.08,0.18,0.16,0.28,0.24
		c1.5,1.32,2.86,2.45,3.9,3.22c0.01,0.01,0.02,0.02,0.03,0.02C75.81,157.52,76.47,157.78,76.47,157.78z"/>
	<path class="st5" d="M76.47,157.78c-0.34-0.14-0.87-0.48-1.54-0.97c-0.01,0-0.02-0.01-0.03-0.02c-0.95-0.76-2.32-1.88-3.9-3.22
		c-0.09-0.08-0.18-0.16-0.28-0.24c-3.57-3.14-7.82-7.2-10.29-9.7l-0.04-0.04c-0.51-0.55-1.01-1.1-1.48-1.65l1.05-1.05
		c0.85,0.85,1.72,1.71,2.56,2.53l0.11,0.11c4.76,4.86,13.54,13.42,16.33,13.42C78.97,156.94,79.25,158.89,76.47,157.78z"/>
	<path class="st6" d="M93.29,107.92c0.03,0.03,0.06,0.05,0.09,0.08l-0.01,0.01C93.34,107.99,93.31,107.96,93.29,107.92
		c-0.02-0.01-0.04-0.03-0.05-0.04c0.01,0,0.01,0.01,0.01,0.01l0.01,0.01C93.27,107.9,93.28,107.91,93.29,107.92L93.29,107.92z"/>
	<path class="st6" d="M60.18,140.86c0.03,0.03,0.06,0.06,0.09,0.08l-0.01,0.01C60.24,140.92,60.21,140.89,60.18,140.86z"/>
	<path class="st6" d="M94.93,110.63c-0.01-0.04-0.01-0.08-0.03-0.12c0,0.01,0.01,0.03,0.01,0.04
		C94.92,110.58,94.92,110.6,94.93,110.63z"/>
	<path class="st6" d="M60.75,141.47l1.73,1.62c-0.06-0.04-0.11-0.09-0.17-0.14c-0.09-0.08-0.19-0.15-0.28-0.24
		c-0.37-0.32-0.76-0.7-1.15-1.11C60.84,141.56,60.8,141.51,60.75,141.47z"/>
	<path class="st6" d="M94.96,110.77c0,0.03,0.01,0.06,0.01,0.09c-0.01-0.07-0.03-0.14-0.04-0.21
		C94.94,110.69,94.95,110.72,94.96,110.77C94.96,110.76,94.96,110.77,94.96,110.77z"/>
	<path class="st6" d="M94.63,113.17c-0.01,0.03-0.03,0.06-0.05,0.08c0.2-0.41,0.32-0.81,0.39-1.19c-0.03,0.2-0.07,0.41-0.14,0.63
		c-0.01,0.03-0.02,0.07-0.04,0.11c-0.01,0.04-0.03,0.08-0.05,0.12c-0.02,0.04-0.04,0.08-0.06,0.12
		C94.67,113.09,94.65,113.13,94.63,113.17z"/>
	<path class="st6" d="M90.61,118c0.14-0.14,0.28-0.29,0.4-0.42c-0.05,0.06-0.11,0.11-0.16,0.17C90.78,117.82,90.7,117.91,90.61,118z
		"/>
	<path class="st7" d="M102.34,98.69c-0.03-0.03-0.06-0.06-0.09-0.09l0,0L102.34,98.69z"/>
	<path class="st7" d="M60.73,141.44l-0.5-0.46l-0.01,0.01l-0.18-0.18l0.04-0.04c0.03,0.03,0.05,0.06,0.08,0.09l0.02,0.02
		c0.03,0.03,0.05,0.06,0.08,0.09C60.42,141.12,60.57,141.28,60.73,141.44z"/>
	<path class="st7" d="M93.99,108.66c0.23,0.3,0.47,0.67,0.66,1.1c-0.01-0.04-0.03-0.07-0.05-0.11c-0.03-0.07-0.07-0.14-0.11-0.22
		c-0.04-0.08-0.09-0.16-0.14-0.24c-0.08-0.14-0.18-0.27-0.27-0.4c-0.03-0.04-0.06-0.08-0.09-0.12c-0.05-0.06-0.1-0.13-0.15-0.18
		c-0.06-0.08-0.14-0.16-0.21-0.23c-0.07-0.08-0.14-0.15-0.21-0.22L93.38,108c-0.03-0.03-0.06-0.06-0.09-0.08l-0.01-0.01
		c-0.01-0.01-0.01-0.01-0.02-0.01l-0.01-0.01c0,0,0-0.01-0.01-0.01c0-0.01,0-0.01-0.01-0.01l-0.01-0.01
		c-0.01-0.01-0.02-0.01-0.03-0.02l-0.01-0.01c-0.01-0.01-0.01-0.02-0.02-0.02c0,0,0,0-0.01-0.01c-0.01-0.01-0.01-0.01-0.02-0.01
		l-0.01-0.01c-0.01-0.01-0.01-0.01-0.01-0.01c-0.02-0.01-0.03-0.02-0.03-0.02l0.02-0.02c0.03,0.04,0.06,0.07,0.08,0.09l0.01,0.01
		c0.03,0.02,0.06,0.05,0.09,0.08l0.08,0.08C93.55,108.15,93.77,108.38,93.99,108.66z"/>
	<path class="st7" d="M63.12,142.56c-0.04,0.03-0.08,0.06-0.11,0.09c0.03-0.02,0.06-0.04,0.08-0.07
		C63.1,142.57,63.11,142.57,63.12,142.56z"/>
	<path class="st7" d="M63.27,142.43c-0.04,0.03-0.08,0.06-0.11,0.09l0.02-0.02C63.21,142.48,63.24,142.46,63.27,142.43z"/>
	<path class="st7" d="M63.42,142.31c-0.05,0.04-0.11,0.08-0.15,0.12C63.32,142.39,63.37,142.35,63.42,142.31L63.42,142.31z"/>
	<path class="st7" d="M94.97,110.86c-0.01-0.07-0.03-0.14-0.04-0.21c0.01,0.04,0.02,0.07,0.03,0.11c0,0.01,0,0.01,0,0.01
		C94.96,110.8,94.97,110.83,94.97,110.86z"/>
	<path class="st7" d="M93.49,114.84c0,0-0.25,0.33-0.88,1.04c0-0.01,0.01-0.02,0.02-0.02c0.19-0.22,0.38-0.43,0.55-0.63
		c0.06-0.07,0.11-0.14,0.17-0.2c0.06-0.07,0.11-0.13,0.16-0.2c0.05-0.06,0.11-0.13,0.15-0.19c0.2-0.25,0.38-0.49,0.53-0.71
		c0.07-0.1,0.14-0.2,0.2-0.3c0.07-0.11,0.13-0.21,0.19-0.31C94.32,113.8,93.97,114.31,93.49,114.84z"/>
	<path class="st7" d="M92.16,116.36c0.02-0.03,0.04-0.04,0.06-0.07l0.03-0.03C92.22,116.3,92.19,116.33,92.16,116.36z"/>
	<path class="st7" d="M90.61,118c0.14-0.14,0.28-0.29,0.4-0.42c-0.05,0.06-0.11,0.11-0.16,0.17C90.78,117.82,90.7,117.91,90.61,118z
		"/>
	<path class="st7" d="M63.84,141.96c0.07-0.06,0.14-0.12,0.22-0.19c0.18-0.15,0.36-0.3,0.56-0.47c0.1-0.08,0.2-0.17,0.31-0.26
		c0.14-0.12,0.3-0.25,0.45-0.38c0.13-0.11,0.26-0.22,0.39-0.33c0.15-0.13,0.3-0.25,0.46-0.39c0.16-0.13,0.32-0.27,0.48-0.41
		c0.23-0.19,0.45-0.38,0.69-0.58c0.24-0.2,0.48-0.4,0.73-0.62c0.26-0.22,0.52-0.44,0.79-0.67c0.26-0.22,0.51-0.44,0.78-0.67
		c0.21-0.18,0.42-0.36,0.64-0.55c0.09-0.07,0.18-0.15,0.26-0.23c0.24-0.2,0.48-0.41,0.72-0.62c0.14-0.13,0.29-0.25,0.44-0.38
		c0.12-0.1,0.24-0.21,0.36-0.31c0.09-0.08,0.18-0.16,0.27-0.23c0.94-0.81,1.91-1.65,2.91-2.52c0.3-0.26,0.6-0.52,0.9-0.79
		c0.98-0.86,1.97-1.73,2.96-2.61c0.16-0.15,0.33-0.29,0.5-0.44c1.74-1.55,3.46-3.11,5.09-4.63c0.22-0.2,0.44-0.41,0.65-0.61
		c0.45-0.43,0.9-0.84,1.34-1.26c0.29-0.28,0.58-0.55,0.86-0.82c0.38-0.37,0.75-0.73,1.11-1.08c0.15-0.15,0.3-0.29,0.45-0.44
		c0.15-0.14,0.29-0.29,0.44-0.43C85.55,123.1,77.84,130.34,63.84,141.96z"/>
	<path class="st8" d="M102.65,98.77l-0.03,0.03c-0.06-0.07-0.12-0.14-0.18-0.21c0.03,0.03,0.07,0.06,0.1,0.08
		C102.58,98.71,102.62,98.74,102.65,98.77z"/>
	<path class="st9" d="M133.42,67.61c-0.03-0.03-0.06-0.06-0.09-0.09"/>
	<path class="st9" d="M106.92,107.04c-0.01,0.01-0.01,0.01-0.01,0.01"/>
	<path class="st10" d="M69.23,146.65l-0.58,0.2l0.86-2.15c0,0,30.06-24.49,33.4-32.28l3.04-1.52
		C98.02,123.66,69.23,146.65,69.23,146.65z"/>
	<path class="st11" d="M115.34,92.42l0.64-0.32c0,0,1.67,0,1.39-1.39l0.64,0.9C117.48,93.38,116.08,92.85,115.34,92.42z"/>
	<polyline class="st6" points="60.03,140.82 60.04,140.8 60.05,140.8 60.08,140.77 	"/>
	<line class="st6" x1="59.77" y1="141.08" x2="59.97" y2="140.88"/>
	<path class="st12" d="M93.14,107.78L93.14,107.78c-0.01-0.01-0.02-0.02-0.04-0.04c0,0,0.01,0.01,0.03,0.02
		C93.13,107.77,93.14,107.78,93.14,107.78z"/>
	<path class="st12" d="M60.26,140.95c0.16,0.17,0.31,0.33,0.47,0.49l-0.5-0.46l-0.09-0.09l-0.09-0.09l0.04-0.04
		c0.03,0.03,0.05,0.06,0.08,0.09l0.02,0.02C60.21,140.89,60.24,140.92,60.26,140.95L60.26,140.95z"/>
	<path class="st12" d="M93.99,108.66c0.23,0.3,0.47,0.67,0.66,1.1c-0.01-0.04-0.03-0.07-0.05-0.11c-0.03-0.07-0.07-0.14-0.11-0.22
		c-0.04-0.08-0.09-0.16-0.14-0.24c-0.08-0.14-0.18-0.27-0.27-0.4c-0.03-0.04-0.06-0.08-0.09-0.12c-0.05-0.06-0.1-0.13-0.15-0.18
		c-0.06-0.08-0.14-0.16-0.21-0.23c-0.07-0.08-0.14-0.15-0.21-0.22L93.38,108l-0.01,0.01c-0.03-0.03-0.05-0.06-0.08-0.09
		c-0.01-0.02-0.03-0.04-0.04-0.05l-0.09-0.09c0,0,0.01,0,0.01,0.01l0.01,0.01c0,0,0,0,0.01,0.01c0.01,0,0.01,0.01,0.02,0.01
		l0.01,0.01c0.03,0.02,0.06,0.05,0.09,0.08l0.08,0.08C93.55,108.15,93.77,108.38,93.99,108.66z"/>
	<path class="st12" d="M63.18,142.51c0.03-0.03,0.06-0.05,0.09-0.08c-0.04,0.03-0.08,0.06-0.11,0.09c-0.02,0.01-0.03,0.02-0.04,0.03
		c-0.04,0.03-0.08,0.06-0.11,0.09c0.03-0.02,0.06-0.04,0.08-0.07C63.11,142.56,63.15,142.53,63.18,142.51z"/>
	<path class="st12" d="M63.41,142.31c0.03-0.03,0.06-0.05,0.09-0.08C63.48,142.26,63.45,142.28,63.41,142.31L63.41,142.31z"/>
	<path class="st12" d="M94.97,110.86c-0.01-0.07-0.03-0.14-0.04-0.21c0.01,0.04,0.02,0.07,0.03,0.11c0,0.01,0,0.01,0,0.01
		C94.96,110.8,94.97,110.83,94.97,110.86z"/>
	<path class="st12" d="M94.36,113.62c0.07-0.11,0.13-0.21,0.19-0.31c-0.24,0.49-0.59,1-1.07,1.53c0,0-0.25,0.33-0.88,1.04
		c-0.04,0.04-0.07,0.08-0.11,0.13c0.04-0.05,0.09-0.1,0.13-0.15c0.19-0.22,0.38-0.43,0.55-0.63c0.06-0.07,0.11-0.14,0.17-0.2
		c0.06-0.07,0.11-0.13,0.16-0.2c0.05-0.06,0.1-0.13,0.15-0.19c0.2-0.25,0.38-0.49,0.53-0.71C94.24,113.82,94.3,113.72,94.36,113.62z
		"/>
	<path class="st12" d="M92.08,116.45c0.05-0.05,0.09-0.1,0.14-0.16l0.03-0.03c-0.03,0.03-0.06,0.06-0.08,0.09
		C92.13,116.39,92.11,116.42,92.08,116.45z"/>
	<path class="st12" d="M90.61,118c0.14-0.14,0.28-0.29,0.4-0.42c-0.05,0.06-0.11,0.11-0.16,0.17C90.78,117.82,90.7,117.91,90.61,118
		z"/>
	<path class="st12" d="M63.84,141.96c-0.07,0.06-0.14,0.11-0.21,0.17c0.13-0.11,0.27-0.23,0.43-0.36c0.18-0.15,0.36-0.3,0.56-0.47
		c0.1-0.08,0.2-0.17,0.31-0.26c0.14-0.12,0.3-0.25,0.45-0.38c0.13-0.11,0.26-0.22,0.39-0.33c0.15-0.13,0.3-0.25,0.46-0.39
		c0.16-0.13,0.32-0.27,0.48-0.41c0.23-0.19,0.45-0.38,0.69-0.58c0.24-0.2,0.48-0.4,0.73-0.62c0.26-0.22,0.52-0.44,0.79-0.67
		c0.26-0.22,0.51-0.44,0.78-0.67c0.21-0.18,0.42-0.36,0.64-0.55c0.09-0.07,0.18-0.15,0.26-0.23c0.24-0.2,0.48-0.41,0.72-0.62
		c0.14-0.13,0.29-0.25,0.44-0.38c0.12-0.1,0.24-0.21,0.36-0.31c0.09-0.08,0.18-0.16,0.27-0.23c0.94-0.81,1.91-1.65,2.91-2.52
		c0.3-0.26,0.6-0.52,0.9-0.79c0.98-0.86,1.97-1.73,2.96-2.61c0.16-0.15,0.33-0.29,0.5-0.44c1.74-1.55,3.46-3.11,5.09-4.63
		c0.22-0.2,0.44-0.41,0.65-0.61c0.45-0.43,0.9-0.84,1.34-1.26c0.29-0.28,0.58-0.55,0.86-0.82c0.38-0.37,0.75-0.73,1.11-1.08
		c0.15-0.15,0.3-0.29,0.45-0.44c0.15-0.14,0.29-0.29,0.44-0.43C85.55,123.1,77.84,130.34,63.84,141.96z"/>
	<path class="st13" d="M133.15,67.32c-3.8-4-8.92-5.38-8.92-5.38c1.39-10.85-7.51-9.74-7.51-9.74
		c-7.14,17.57-22.32,41.25-22.73,41.9c-1.82-0.15-2.87,0.4-2.87,0.4c-0.32,0.18-0.65,0.37-0.99,0.58
		c-12.76,7.91-35.75,36.71-35.75,36.71l-0.2,0.58l-0.58,1.66c0.13,0.18,0.3,0.39,0.49,0.62c-4.4-4.63-9.56-10.34-9.72-11.77
		c-0.12-1.06,0.26-2.91,0.78-4.82l3.39-1.58l0.83-3.06c0,0,20.87-21.43,25.88-30.89c5.01-9.46,10.3-27.55,13.92-37.29
		c3.62-9.74,13.64-24.77,40.08-27.27c0,0,6.12-2.78,7.24-2.78l-12.21-1.02c26.74-4.04,44.14,12.27,47.1,15.3
		c0.07,0.07,0.13,0.13,0.18,0.18c3.03,2.96,19.34,20.36,15.3,47.1l-1.02-12.21c0,1.11-2.78,7.24-2.78,7.24
		c-2.5,26.44-17.53,36.46-27.27,40.08c-9.74,3.62-27.83,8.91-37.29,13.92c-9.46,5.01-30.89,25.88-30.89,25.88l-3.06,0.83l-1.58,3.39
		c-1.91,0.52-3.76,0.9-4.82,0.78c-1.43-0.16-7.14-5.32-11.77-9.72c0.23,0.19,0.43,0.36,0.62,0.49l1.66-0.58l0.58-0.2
		c0,0,28.8-22.98,36.71-35.75c0.21-0.34,0.4-0.67,0.58-0.99c0,0,0.55-1.05,0.4-2.87c0.65-0.42,24.34-15.6,41.9-22.73
		c0,0,1.11-8.91-9.74-7.51c0,0-1.37-5.12-5.38-8.92L133.15,67.32z"/>
	<path class="st0" d="M56.33,131.52l-2.15,0.86l0.2-0.58c0,0,22.98-28.8,35.75-36.71l-1.52,3.04
		C80.82,101.47,56.33,131.52,56.33,131.52z"/>
	<path class="st0" d="M93.39,108l-0.02,0.02c-0.03-0.03-0.05-0.06-0.08-0.09l0.02-0.02L93.39,108z"/>
	<path class="st14" d="M110.32,83.66c-1.39-0.28-1.39,1.39-1.39,1.39l-0.32,0.64c0.17,0.28,0.32,0.47,0.32,0.47l-9.74,9.74
		c1.28,1.05,2.27,1.88,3.03,2.51l0.03-0.03c0.03,0.04,0.06,0.08,0.1,0.11c0.03,0.03,0.06,0.07,0.08,0.1
		c0.03,0.03,0.07,0.06,0.1,0.08c0.04,0.03,0.08,0.07,0.11,0.1l-0.12,0.12c-0.03-0.03-0.07-0.07-0.11-0.11l0,0l-0.09-0.09
		c-0.03-0.03-0.06-0.06-0.09-0.09c-0.03-0.04-0.07-0.07-0.11-0.11c-3.37-3.27-6.21-4.23-8.15-4.39c0.42-0.65,15.6-24.34,22.73-41.9
		c0,0,8.91-1.11,7.51,9.74c-16.89,19.92-14.37,20.88-13.75,20.88"/>
	<path class="st2" d="M48.54,116.49l-3.39,1.58c0.71-2.62,1.68-5.35,2-6.31c0.56-1.67,14.75-16.98,14.75-16.98
		c11.69-13.36,13.92-22.82,20.32-45.36s28.11-31.45,28.11-31.45c4.89-1.92,9.55-3.13,13.95-3.8l12.21,1.02
		c-1.11,0-7.24,2.78-7.24,2.78c-26.44,2.5-36.46,17.53-40.08,27.27c-3.62,9.74-8.91,27.83-13.92,37.29
		c-5.01,9.46-25.88,30.89-25.88,30.89L48.54,116.49z"/>
	<path class="st3" d="M23.54,158.74l-0.88,2c0,0,2.38,4.29,8.03,9.78l1.84-1.84c-0.02-0.02-0.02-0.03-0.02-0.03
		s-0.29-0.31-0.78-0.84l-0.02-0.02c-2.67-2.64-4.87-5.18-6.4-7.05c0,0-0.01-0.01-0.01-0.01C24.68,160.03,24.08,159.36,23.54,158.74z
		"/>
	<path class="st4" d="M25.25,145.23l-2.37,2.37c0,0-0.77,3.68,0.06,10.08c0,0,0.86,1.2,2.37,3.05c0,0,0,0,0.01,0.01
		c2.37,2.65,5.09,5.62,6.4,7.05l0.02,0.02c0.28,0.28,0.56,0.55,0.85,0.83l7.24-7.24c-0.02-0.03-0.04-0.06-0.05-0.07
		c-2.67-2.59-7.83-8-11.29-12.02c-0.05-0.05-0.09-0.11-0.14-0.16C26.95,147.53,25.8,146.12,25.25,145.23z"/>
	<path class="st5" d="M25.07,144.75c0.3,0.75,1.57,2.39,3.28,4.39c0.04,0.05,0.09,0.11,0.14,0.16c4.41,5.04,11.28,12.01,11.28,12.01
		s0,0,0.01,0.01c0.02,0.02,0.04,0.04,0.06,0.06l1.15-1.15c-1.07-1.05-2.11-2.07-3.09-3.07l-0.13-0.13
		c-3.93-3.92-9.13-9.39-11.07-12.72c-0.01-0.01-0.01-0.02-0.02-0.03c-0.75-1.14-1.03-1.86-0.77-2.03
		C25.9,142.24,23.96,141.97,25.07,144.75z"/>
	<path class="st4" d="M25.9,142.24c0,0.5,0.28,1.2,0.77,2.03c0,0.01,0.01,0.02,0.02,0.03c1.68,2.55,5.65,7.22,11.07,12.72l0.13,0.13
		c1.21,1.21,2.29,2.26,3.11,3.05l3.3-3.3c-3.8-3.68-12.82-13.25-14.54-16.19l-1.32,1.32C28.44,142.04,26.93,141.56,25.9,142.24z"/>
	<path class="st5" d="M29.54,140.28c0.05,0.12,0.12,0.27,0.22,0.43l0.02-0.02c4.26,6,14.17,15.86,14.52,16.21l1.13-1.13
		c-5.25-4.82-9.69-9.74-12.38-13.23c-0.08-0.1-0.16-0.2-0.23-0.3c-0.08-0.1-0.15-0.2-0.23-0.3c-0.03-0.04-0.07-0.09-0.1-0.13
		c-0.08-0.11-0.16-0.21-0.24-0.32c-0.08-0.11-0.15-0.21-0.22-0.31c-1.37-1.91-2-3.17-1.66-3.41
		C30.37,137.78,28.42,137.5,29.54,140.28z"/>
	<g>
		<line class="st6" x1="44.3" y1="156.91" x2="44.3" y2="156.91"/>
		<path class="st4" d="M30.37,137.78c0,0.76,0.63,1.96,1.66,3.41c0.07,0.1,0.14,0.21,0.22,0.31c0.08,0.11,0.16,0.21,0.24,0.32
			c0.03,0.04,0.07,0.09,0.1,0.13c0.08,0.1,0.15,0.2,0.23,0.3c3.47,4.51,9.72,10.67,12.66,13.49l3.01-3.01
			c-0.06-0.05-0.11-0.11-0.18-0.17c-0.08-0.07-0.16-0.15-0.25-0.24c-2.17-2.04-8.45-8.15-14.27-15.51l-1.11,1.11
			C32.68,137.92,31.41,137.08,30.37,137.78z"/>
	</g>
	<path class="st5" d="M33.43,135.83c0.09,0.21,0.25,0.5,0.48,0.85c2.2,3.3,10.43,12.03,14.14,15.64c0.09,0.09,0.18,0.17,0.25,0.24
		c0.07,0.06,0.13,0.12,0.18,0.16l1.17-1.17c-3.8-3.64-14.57-14.21-15.34-17.86c0-0.01,0-0.01,0-0.01c-0.06-0.19-0.07-0.31-0.04-0.36
		C34.27,133.32,32.32,133.05,33.43,135.83z"/>
	<path class="st4" d="M34.27,133.32c0,0.11,0.01,0.23,0.04,0.36c0,0,0,0.01,0,0.01c0.43,1.4,3.44,6.6,15.36,17.7
		c0.02,0.02,0.05,0.04,0.07,0.06l3.08-3.08c-1.16-1.11-2.88-2.86-4.75-4.83l-0.03-0.03c-3.48-3.59-7.9-8.34-9.8-11.18l-1.67,1.67
		C36.57,134.03,34.47,132.9,34.27,133.32z"/>
	<path class="st5" d="M37.99,131.43c0.65,1.62,5.81,7.38,10.19,11.97l0.03,0.03c2.65,2.74,4.75,4.79,4.75,4.79s0.01,0.01,0.02,0.02
		l1.16-1.16c-4.01-3.85-15.3-14.95-15.3-18.16C38.82,128.92,36.88,128.65,37.99,131.43z"/>
	<path class="st4" d="M43.25,124.56l-4.73,4.73c-0.12,1.1,2.79,4.63,6.12,8.35c4.26,4.75,9.46,9.46,9.46,9.46l4.94-4.94
		c-0.39-0.35-0.94-0.87-1.6-1.53l-0.04-0.04c-3.53-3.28-7.04-7.17-9.7-10.29c-0.08-0.09-0.16-0.18-0.24-0.28
		c-1.32-1.5-2.45-2.86-3.22-3.9c-0.01-0.01-0.02-0.02-0.02-0.03C43.51,125.22,43.25,124.56,43.25,124.56z"/>
	<path class="st5" d="M43.25,124.56c0.14,0.34,0.48,0.87,0.97,1.54c0,0.01,0.01,0.02,0.02,0.03c0.76,0.95,1.88,2.32,3.22,3.9
		c0.08,0.09,0.16,0.18,0.24,0.28c3.14,3.57,7.2,7.82,9.7,10.29l0.04,0.04c0.55,0.51,1.1,1.01,1.65,1.48l1.05-1.05
		c-0.85-0.85-1.71-1.72-2.53-2.56l-0.11-0.11c-4.86-4.76-13.42-13.54-13.42-16.33C44.09,122.06,42.14,121.78,43.25,124.56z"/>
	<path class="st6" d="M82.97,110.48c0.02-0.02,0.04-0.04,0.06-0.05c-0.08,0.07-0.16,0.15-0.24,0.23
		C82.85,110.59,82.91,110.54,82.97,110.48z"/>
	<path class="st6" d="M88.69,106.11c0.06-0.02,0.11-0.03,0.18-0.03c-0.05,0.01-0.09,0.02-0.14,0.03c-0.3,0.07-0.6,0.17-0.92,0.32
		c0.02-0.01,0.04-0.02,0.07-0.03c0.12-0.07,0.23-0.12,0.34-0.16c0.04-0.01,0.08-0.03,0.12-0.04c0.11-0.03,0.21-0.06,0.32-0.08
		C88.67,106.11,88.68,106.11,88.69,106.11z"/>
	<path class="st6" d="M59.42,140.12l0.14,0.15c-0.04-0.04-0.09-0.08-0.13-0.13L59.42,140.12c-0.41-0.38-0.78-0.77-1.1-1.13
		c-0.09-0.09-0.16-0.19-0.24-0.28c-0.05-0.06-0.09-0.11-0.14-0.17L59.42,140.12z"/>
	<path class="st6" d="M93.1,107.74c-0.03-0.03-0.06-0.05-0.09-0.08l0.01-0.01C93.05,107.68,93.08,107.71,93.1,107.74l0.01,0
		c0.01,0.01,0.01,0.01,0.01,0.02c0.01,0,0.01,0.01,0.01,0.01l0.01,0.01C93.14,107.78,93.12,107.76,93.1,107.74z"/>
	<path class="st6" d="M60.09,140.76c0.03,0.03,0.05,0.06,0.08,0.09C60.14,140.82,60.11,140.79,60.09,140.76L60.09,140.76z"/>
	<path class="st6" d="M93.19,107.83l-0.04-0.04c0.01,0.01,0.01,0.01,0.02,0.01c0,0,0,0,0.01,0.01
		C93.18,107.81,93.18,107.82,93.19,107.83z"/>
	<path class="st15" d="M93.16,107.77l-0.08-0.08c-0.13-0.13-0.3-0.3-0.51-0.47c-0.04-0.03-0.08-0.07-0.13-0.1
		c-0.05-0.04-0.1-0.08-0.15-0.11c-0.11-0.08-0.23-0.17-0.36-0.24c-0.19-0.12-0.4-0.24-0.63-0.33c-0.15-0.07-0.31-0.13-0.47-0.18
		c-0.08-0.03-0.16-0.05-0.25-0.07c-0.02-0.01-0.04-0.01-0.06-0.01c-0.07-0.02-0.14-0.03-0.21-0.04c-0.04-0.01-0.08-0.01-0.12-0.02
		c-0.05-0.01-0.11-0.02-0.17-0.02c-0.03,0-0.07-0.01-0.1-0.01c-0.04,0-0.09-0.01-0.14-0.01c-0.01,0-0.01,0-0.02,0c0,0-0.01,0-0.01,0
		c-0.02,0-0.04,0-0.05,0c-0.02,0-0.04,0-0.07,0c-0.06-0.01-0.13-0.01-0.2,0c-0.01,0-0.01,0-0.01,0c-0.01,0-0.01,0-0.02,0
		c-0.02,0-0.03,0-0.04,0.01c-0.03,0-0.06,0-0.08,0.01c-0.13,0.01-0.24,0.03-0.37,0.05c-0.06,0.01-0.12,0.02-0.18,0.03
		c-0.01,0-0.02,0-0.03,0.01c-0.11,0.02-0.21,0.05-0.32,0.08c-0.04,0.01-0.08,0.03-0.12,0.04c-0.11,0.04-0.22,0.09-0.34,0.16
		c-0.02,0.01-0.04,0.02-0.07,0.03l0,0c-0.51,0.24-1.05,0.6-1.61,1.12c0,0-0.42,0.32-1.36,1.18c-0.04,0.03-0.08,0.07-0.12,0.11
		c-0.04,0.03-0.08,0.07-0.12,0.11c-0.04,0.04-0.08,0.08-0.12,0.12c-0.07,0.06-0.14,0.12-0.2,0.18c-0.11,0.1-0.23,0.21-0.35,0.32
		c-0.12,0.12-0.25,0.24-0.39,0.36c-0.09,0.09-0.19,0.19-0.29,0.28c-0.04,0.04-0.09,0.09-0.14,0.13c-0.05,0.05-0.09,0.09-0.14,0.14
		c-0.06,0.06-0.12,0.12-0.18,0.18c0,0.01-0.01,0.02-0.02,0.02c-3.86,3.77-11.27,11.54-23.69,26.52c-0.06,0.07-0.11,0.14-0.17,0.21
		c-0.03,0.04-0.07,0.08-0.1,0.12c-0.03,0.03-0.06,0.06-0.08,0.09l0,0c-0.04,0.05-0.09,0.1-0.13,0.15c-0.03,0.04-0.06,0.08-0.09,0.11
		c-0.01,0.01-0.01,0.02-0.02,0.03c-0.04,0.04-0.07,0.08-0.1,0.13c-0.02,0.02-0.04,0.05-0.06,0.08c-0.03,0.04-0.06,0.08-0.09,0.12
		c-0.04,0.04-0.07,0.08-0.11,0.13c-0.01,0.01-0.02,0.02-0.03,0.03c-0.02,0.02-0.03,0.04-0.05,0.05c-0.02,0.02-0.03,0.04-0.05,0.06
		c-0.01,0.02-0.03,0.03-0.04,0.05c0.04,0.06,0.09,0.11,0.14,0.17c0.08,0.09,0.15,0.19,0.24,0.28c0.32,0.36,0.69,0.75,1.09,1.14
		l-0.01,0.01c-1.09-1.09-3.1-3.15-5.31-5.48c-0.19-0.23-0.36-0.43-0.49-0.62l0.58-1.66l2.15-0.86c0,0,24.49-30.06,32.28-33.4
		l1.52-3.04c0.34-0.21,0.67-0.4,0.99-0.58c0,0,1.05-0.55,2.87-0.4c1.94,0.16,4.78,1.11,8.15,4.39c0.03,0.03,0.07,0.07,0.11,0.11
		c0.03,0.03,0.06,0.06,0.09,0.09c0.03,0.03,0.06,0.06,0.09,0.09c0.04,0.03,0.07,0.07,0.11,0.11c3.27,3.37,4.23,6.21,4.39,8.15
		c0.15,1.82-0.4,2.87-0.4,2.87c-0.18,0.32-0.37,0.65-0.58,0.99l-3.04,1.52c-3.34,7.79-33.4,32.28-33.4,32.28l-0.86,2.15l-1.66,0.58
		c-0.18-0.13-0.39-0.3-0.62-0.49c-2.95-2.8-5.45-5.28-6.14-5.96l0.01-0.01l0.5,0.46l0.03,0.03c0.04,0.05,0.08,0.09,0.13,0.13
		c0.4,0.41,0.79,0.79,1.15,1.11c0.09,0.09,0.19,0.16,0.28,0.24c0.06,0.05,0.11,0.09,0.17,0.14c0.06-0.05,0.11-0.09,0.17-0.14
		c0.01-0.01,0.02-0.02,0.03-0.03c0.05-0.04,0.09-0.07,0.13-0.11c0.04-0.03,0.08-0.06,0.12-0.09c0.03-0.02,0.05-0.04,0.08-0.06
		c0.04-0.03,0.07-0.06,0.11-0.09c0.01-0.01,0.02-0.02,0.04-0.03c0.04-0.03,0.07-0.06,0.11-0.09c0.05-0.04,0.1-0.08,0.15-0.13l0,0
		c0.03-0.03,0.06-0.05,0.09-0.08c0.04-0.03,0.08-0.07,0.12-0.1c0.07-0.06,0.14-0.11,0.21-0.17c14-11.62,21.71-18.85,25.73-22.9
		c0.19-0.19,0.36-0.36,0.53-0.54c0.17-0.17,0.33-0.34,0.49-0.5l0.02-0.02c0.08-0.08,0.17-0.17,0.25-0.25
		c0.05-0.06,0.11-0.11,0.16-0.17l0.09-0.09c0.13-0.13,0.25-0.26,0.36-0.39c0.11-0.12,0.22-0.23,0.32-0.35
		c0.03-0.03,0.06-0.07,0.09-0.1c0.03-0.03,0.06-0.07,0.09-0.1c0.04-0.04,0.08-0.08,0.11-0.11c0.03-0.03,0.06-0.06,0.08-0.09
		c0.03-0.03,0.06-0.06,0.08-0.09c0.02-0.02,0.04-0.04,0.06-0.07c0.05-0.06,0.1-0.11,0.15-0.17c0.01-0.01,0.02-0.02,0.03-0.03
		c0.04-0.04,0.08-0.08,0.11-0.13c0.64-0.71,0.88-1.04,0.88-1.04c0.48-0.53,0.83-1.03,1.07-1.53c0.01-0.01,0.01-0.02,0.02-0.03
		c0.01-0.01,0.01-0.01,0.01-0.02c0.02-0.03,0.03-0.06,0.05-0.08c0.02-0.04,0.04-0.09,0.06-0.13c0.02-0.04,0.04-0.08,0.06-0.12
		c0.02-0.04,0.03-0.08,0.05-0.12c0.01-0.04,0.03-0.08,0.04-0.11c0.06-0.21,0.11-0.42,0.14-0.63c0-0.01,0-0.03,0.01-0.04
		c0.01-0.03,0.01-0.07,0.01-0.11c0.01-0.04,0.01-0.08,0.01-0.13c0-0.03,0.01-0.05,0.01-0.08c0-0.02,0.01-0.04,0.01-0.07
		c0.01-0.07,0.01-0.14,0-0.2c0-0.03,0-0.04,0-0.07c0-0.02,0-0.04,0-0.05c0-0.08,0-0.14-0.01-0.21c-0.01-0.08-0.02-0.16-0.03-0.24
		c0-0.03-0.01-0.06-0.01-0.09c0,0,0,0,0-0.01c-0.01-0.07-0.03-0.14-0.04-0.21c-0.18-0.77-0.56-1.41-0.93-1.89
		c-0.22-0.29-0.44-0.51-0.6-0.67l-0.08-0.08c-0.04-0.03-0.07-0.06-0.09-0.08"/>
	<path class="st7" d="M87.81,106.43c-0.05,0.03-0.1,0.06-0.15,0.09c-0.05,0.03-0.11,0.06-0.16,0.1c-0.11,0.07-0.23,0.14-0.35,0.22
		c-0.01,0.01-0.03,0.02-0.04,0.03c-0.17,0.12-0.34,0.24-0.52,0.38c-0.24,0.18-0.5,0.39-0.77,0.62c-0.07,0.06-0.14,0.11-0.21,0.18
		c-0.21,0.18-0.42,0.37-0.65,0.57c-0.04,0.04-0.09,0.08-0.13,0.11c0.94-0.86,1.36-1.18,1.36-1.18
		C86.75,107.03,87.29,106.67,87.81,106.43z"/>
	<path class="st7" d="M88.87,106.08c-0.05,0.01-0.09,0.02-0.14,0.03c-0.01,0-0.03,0-0.04,0.01
		C88.75,106.09,88.8,106.09,88.87,106.08z"/>
	<path class="st7" d="M59.07,137.19c12.42-14.98,19.83-22.75,23.69-26.52c-0.4,0.39-0.81,0.8-1.22,1.22
		c-0.15,0.15-0.29,0.29-0.44,0.45c-0.36,0.36-0.72,0.73-1.08,1.11c-0.27,0.28-0.54,0.57-0.82,0.86c-0.41,0.44-0.83,0.88-1.26,1.34
		c-0.28,0.3-0.57,0.61-0.85,0.92c-2.44,2.63-5.01,5.5-7.43,8.27c-0.27,0.3-0.53,0.6-0.79,0.9c-0.65,0.73-1.28,1.46-1.89,2.18
		c-0.16,0.18-0.31,0.36-0.46,0.53c-0.24,0.28-0.48,0.55-0.72,0.83c-0.14,0.16-0.27,0.31-0.4,0.47c-0.15,0.17-0.29,0.34-0.43,0.51
		c-0.32,0.37-0.62,0.72-0.92,1.08c-0.23,0.26-0.46,0.53-0.68,0.79c-0.5,0.58-0.97,1.14-1.41,1.66c-0.16,0.18-0.31,0.36-0.46,0.54
		c-0.17,0.2-0.33,0.39-0.49,0.58c-0.23,0.26-0.44,0.51-0.64,0.76c-0.13,0.15-0.26,0.31-0.38,0.45c-0.09,0.11-0.18,0.21-0.26,0.31
		c-0.17,0.2-0.33,0.39-0.47,0.56C59.2,137.05,59.13,137.12,59.07,137.19z"/>
	<path class="st7" d="M58.6,137.76c0.04-0.04,0.08-0.1,0.12-0.15l0,0C58.68,137.66,58.64,137.71,58.6,137.76z"/>
	<path class="st7" d="M58.52,137.85l-0.02,0.02c0.03-0.04,0.06-0.07,0.09-0.11C58.57,137.79,58.55,137.82,58.52,137.85z"/>
	<path class="st7" d="M90.79,106.2c0.03,0.01,0.06,0.02,0.08,0.03c-0.1-0.03-0.2-0.06-0.3-0.09
		C90.64,106.16,90.72,106.18,90.79,106.2z"/>
	<path class="st7" d="M93.3,107.91l-0.02,0.02c0,0-0.01-0.01-0.02-0.03l-0.01-0.01c0,0,0-0.01-0.01-0.01l-0.05-0.05
		c-0.01-0.01-0.01-0.02-0.02-0.02c0,0,0,0-0.01-0.01l-0.01-0.01c0,0-0.01,0-0.01-0.01l-0.01-0.01c-0.01-0.01-0.01-0.01-0.01-0.01
		c0-0.01-0.01-0.01-0.01-0.02l-0.01-0.01c-0.03-0.03-0.05-0.06-0.08-0.09l-0.03-0.03c-0.07-0.07-0.15-0.14-0.22-0.21
		c-0.08-0.07-0.15-0.14-0.23-0.21c-0.06-0.05-0.12-0.1-0.18-0.15c-0.04-0.03-0.08-0.06-0.12-0.09c-0.13-0.1-0.26-0.19-0.4-0.27
		c-0.08-0.05-0.16-0.09-0.24-0.14c-0.07-0.04-0.14-0.08-0.22-0.11c-0.07-0.04-0.15-0.07-0.22-0.1c-0.1-0.04-0.19-0.08-0.29-0.11
		c0.14,0.04,0.27,0.09,0.39,0.15c0.23,0.1,0.43,0.21,0.63,0.33c0.13,0.08,0.25,0.16,0.36,0.24c0.05,0.04,0.1,0.08,0.15,0.11
		c0.04,0.03,0.09,0.07,0.13,0.1c0.21,0.18,0.38,0.34,0.51,0.47l0.08,0.08c0.03,0.04,0.06,0.07,0.08,0.09l0.01,0.01
		C93.24,107.86,93.27,107.88,93.3,107.91z"/>
	<path class="st7" d="M102.43,98.78L102.43,98.78c-0.03-0.03-0.06-0.06-0.09-0.09L102.43,98.78z"/>
	<path class="st7" d="M60.27,140.94l-0.04,0.04l-0.18-0.18c-0.14-0.14-0.36-0.37-0.65-0.66l0.01-0.01l0.02,0.02
		c0.04,0.04,0.09,0.09,0.13,0.13l0.03,0.03c0.16,0.16,0.32,0.31,0.49,0.47c0.03,0.03,0.06,0.05,0.09,0.08l0.02,0.02
		C60.21,140.89,60.24,140.92,60.27,140.94z"/>
	<path class="st16" d="M114.38,86.57l4.96,5.11c-0.04,0.43-0.1,0.78-0.19,1.07l-0.64-0.9c0.28,1.39-1.39,1.39-1.39,1.39l-0.64,0.32
		c-0.28-0.17-0.47-0.32-0.47-0.32l-9.74,9.74c-1.05-1.28-1.88-2.27-2.51-3.03l-1-0.94"/>
	<path class="st16" d="M102.8,99.04l-3.84-3.48c-0.76-0.63,0.67,0.55-0.61-0.5l9.74-9.74c0,0-0.15-0.19-0.32-0.47l0.32-0.64
		c0,0,0-1.67,1.39-1.39l-0.9-0.64c0.29-0.09,0.64-0.15,1.07-0.19l4.88,4.74"/>
	<path class="st8" d="M102.44,98.59"/>
	<path class="st9" d="M93.99,94.11"/>
	<path class="st10" d="M56.33,131.52l-2.15,0.86l0.2-0.58c0,0,22.98-28.8,35.75-36.71l-1.52,3.04
		C80.82,101.47,56.33,131.52,56.33,131.52z"/>
	<polyline class="st6" points="59.67,139.87 59.42,140.12 59.41,140.13 	"/>
	<polyline class="st6" points="59.4,140.14 59.39,140.15 59.38,140.17 	"/>
	<line class="st6" x1="59.31" y1="140.23" x2="59.11" y2="140.43"/>
	<path class="st16" d="M89.57,119.06c-0.14,0.14-0.29,0.29-0.44,0.43c-0.15,0.15-0.29,0.29-0.45,0.44
		c-0.36,0.35-0.73,0.71-1.11,1.08c-0.28,0.27-0.57,0.54-0.86,0.82c-0.44,0.41-0.88,0.83-1.34,1.26c-0.21,0.2-0.43,0.41-0.65,0.61
		c-1.63,1.51-3.35,3.07-5.09,4.63c-0.16,0.15-0.33,0.29-0.5,0.44c-0.99,0.88-1.98,1.75-2.96,2.61c-0.3,0.27-0.6,0.53-0.9,0.79
		c-0.99,0.87-1.96,1.71-2.91,2.52c-0.09,0.08-0.18,0.16-0.27,0.23c-0.12,0.11-0.24,0.21-0.36,0.31c-0.15,0.13-0.29,0.25-0.44,0.38
		c-0.24,0.21-0.48,0.42-0.72,0.62c-0.09,0.08-0.18,0.15-0.26,0.23c-0.21,0.19-0.43,0.37-0.64,0.55c-0.26,0.23-0.52,0.45-0.78,0.67
		c-0.27,0.23-0.53,0.45-0.79,0.67c-0.24,0.21-0.49,0.42-0.73,0.62c-0.24,0.2-0.47,0.4-0.69,0.58c-0.17,0.14-0.33,0.28-0.48,0.41
		c-0.16,0.13-0.31,0.26-0.46,0.39c-0.13,0.11-0.26,0.23-0.39,0.33c-0.16,0.13-0.31,0.26-0.45,0.38c-0.11,0.09-0.21,0.18-0.31,0.26
		c-0.2,0.17-0.39,0.33-0.56,0.47c-0.16,0.13-0.29,0.24-0.43,0.36c-0.04,0.03-0.08,0.07-0.12,0.1c-0.03,0.03-0.06,0.05-0.09,0.08
		c-0.05,0.04-0.1,0.09-0.15,0.13c-0.03,0.03-0.06,0.05-0.09,0.08s-0.06,0.05-0.09,0.07c-0.03,0.03-0.05,0.05-0.08,0.07
		c-0.02,0.02-0.05,0.04-0.08,0.06c-0.04,0.03-0.08,0.06-0.12,0.09c-0.04,0.04-0.08,0.07-0.13,0.11c-0.01,0.01-0.02,0.02-0.03,0.03
		c-0.06,0.05-0.11,0.09-0.17,0.14l-1.73-1.62l-0.03-0.03c-0.16-0.16-0.31-0.32-0.47-0.49l0.01-0.01c-0.03-0.03-0.06-0.05-0.09-0.08
		l-0.02-0.02c-0.03-0.03-0.06-0.06-0.08-0.09l-0.01,0.01c-0.17-0.16-0.33-0.31-0.49-0.47l-0.03-0.03l-0.14-0.15l-1.48-1.57
		c0.01-0.02,0.03-0.03,0.04-0.05c0.02-0.02,0.04-0.04,0.05-0.06c0.02-0.02,0.03-0.04,0.05-0.05c0.01-0.01,0.02-0.02,0.03-0.03
		c0.04-0.05,0.07-0.09,0.11-0.13c0.03-0.04,0.06-0.08,0.09-0.12c0.02-0.03,0.04-0.05,0.06-0.08c0.03-0.04,0.07-0.08,0.1-0.13
		c0.01-0.01,0.01-0.02,0.02-0.03l0.02-0.02c0.03-0.03,0.05-0.06,0.08-0.09c0.04-0.05,0.08-0.1,0.13-0.15
		c0.03-0.03,0.05-0.06,0.08-0.09c0.03-0.04,0.07-0.08,0.1-0.12c0.11-0.13,0.23-0.27,0.36-0.43c0.15-0.18,0.3-0.36,0.47-0.56
		c0.08-0.1,0.17-0.2,0.26-0.31c0.12-0.14,0.25-0.29,0.38-0.45c0.2-0.24,0.41-0.49,0.64-0.76c0.16-0.19,0.32-0.38,0.49-0.58
		c0.15-0.18,0.3-0.36,0.46-0.54c0.44-0.52,0.91-1.08,1.41-1.66c0.22-0.26,0.45-0.52,0.68-0.79c0.3-0.35,0.6-0.71,0.92-1.08
		c0.14-0.16,0.29-0.34,0.43-0.51c0.13-0.15,0.26-0.31,0.4-0.47c0.23-0.27,0.47-0.55,0.72-0.83c0.15-0.18,0.3-0.35,0.46-0.53
		c0.61-0.71,1.25-1.44,1.89-2.18c0.26-0.3,0.52-0.6,0.79-0.9c2.42-2.77,4.99-5.64,7.43-8.27c0.28-0.31,0.57-0.62,0.85-0.92
		c0.42-0.46,0.84-0.9,1.26-1.34c0.28-0.29,0.55-0.58,0.82-0.86c0.36-0.38,0.72-0.75,1.08-1.11c0.15-0.15,0.3-0.3,0.44-0.45
		c0.42-0.43,0.83-0.83,1.22-1.22c0.01-0.01,0.02-0.01,0.02-0.02c0.08-0.08,0.16-0.15,0.24-0.23l0.09-0.09
		c0.05-0.04,0.09-0.09,0.14-0.13c0.1-0.1,0.2-0.19,0.29-0.28c0.14-0.13,0.26-0.25,0.39-0.36c0.12-0.11,0.23-0.22,0.35-0.32
		c0.06-0.06,0.13-0.12,0.2-0.18c0.04-0.04,0.08-0.08,0.12-0.12c0.04-0.04,0.08-0.08,0.12-0.11c0.08-0.08,0.16-0.15,0.25-0.22
		c0.22-0.2,0.44-0.39,0.65-0.57c0.07-0.06,0.14-0.12,0.21-0.18c0.27-0.23,0.53-0.44,0.77-0.62c0.18-0.14,0.36-0.27,0.52-0.38
		c0.01-0.01,0.03-0.02,0.04-0.03c0.12-0.08,0.23-0.16,0.35-0.22c0.05-0.04,0.11-0.07,0.16-0.1c0.05-0.03,0.1-0.06,0.15-0.09l0,0
		c0.32-0.15,0.63-0.25,0.92-0.32c0.05-0.01,0.09-0.02,0.14-0.03c0.12-0.02,0.24-0.04,0.37-0.05c0.03,0,0.06-0.01,0.08-0.01
		c0.01-0.01,0.03-0.01,0.04-0.01c0,0,0.01,0,0.02,0c0,0,0,0,0.01,0c0.07,0,0.14,0,0.2,0c0.02,0,0.04,0,0.07,0c0.02,0,0.03,0,0.05,0
		c0.01,0,0.01,0,0.01,0c0.01,0,0.01,0,0.02,0c0.05,0,0.09,0.01,0.14,0.01c0.04,0,0.07,0.01,0.1,0.01c0.06,0.01,0.11,0.01,0.17,0.02
		c0.04,0.01,0.08,0.01,0.12,0.02c0.07,0.01,0.14,0.03,0.21,0.04c0.02,0,0.04,0.01,0.06,0.01c0.01,0,0.02,0.01,0.03,0.01
		c0.1,0.02,0.2,0.06,0.3,0.09c0.1,0.03,0.19,0.07,0.29,0.11c0.08,0.03,0.15,0.06,0.22,0.1c0.07,0.03,0.14,0.07,0.22,0.11
		c0.08,0.04,0.16,0.09,0.24,0.14c0.14,0.08,0.27,0.18,0.4,0.27c0.04,0.03,0.08,0.06,0.12,0.09c0.06,0.05,0.13,0.1,0.18,0.15
		c0.08,0.06,0.16,0.14,0.23,0.21c0.08,0.07,0.15,0.14,0.22,0.21l0.03,0.03l-0.01,0.01c0.03,0.03,0.06,0.05,0.09,0.08
		c0.02,0.01,0.04,0.03,0.05,0.04l0.09,0.09c0.01,0.01,0.03,0.03,0.04,0.05c0.03,0.03,0.05,0.06,0.08,0.09l0.01-0.01l0.03,0.03
		c0.07,0.07,0.14,0.15,0.21,0.22c0.07,0.08,0.14,0.15,0.21,0.23c0.05,0.06,0.1,0.12,0.15,0.18c0.03,0.04,0.06,0.08,0.09,0.12
		c0.1,0.13,0.19,0.26,0.27,0.4c0.05,0.08,0.09,0.16,0.14,0.24c0.04,0.07,0.08,0.14,0.11,0.22c0.02,0.04,0.04,0.07,0.05,0.11
		c0.02,0.04,0.03,0.07,0.05,0.11c0.04,0.09,0.07,0.18,0.11,0.27c0.03,0.08,0.05,0.17,0.08,0.25c0.01,0.04,0.02,0.08,0.03,0.11
		c0.01,0.04,0.02,0.08,0.03,0.12c0,0.01,0.01,0.01,0.01,0.02c0.01,0.07,0.03,0.14,0.04,0.21c0.01,0.08,0.03,0.16,0.03,0.24
		c0.01,0.07,0.01,0.14,0.01,0.21c0.01,0.02,0,0.04,0,0.05c0,0.02,0,0.04,0,0.07c0,0.07,0,0.13,0,0.2c0,0.03,0,0.05-0.01,0.07
		c0,0.03,0,0.06-0.01,0.08c0,0.04-0.01,0.08-0.01,0.13c0,0.04-0.01,0.08-0.01,0.11c0,0.01,0,0.03-0.01,0.04
		c-0.06,0.38-0.18,0.78-0.39,1.19c0,0.01-0.01,0.02-0.01,0.02c0,0.01-0.01,0.03-0.02,0.03c-0.06,0.1-0.12,0.2-0.19,0.31
		c-0.06,0.09-0.13,0.19-0.2,0.3c-0.15,0.22-0.33,0.46-0.53,0.71c-0.05,0.06-0.1,0.13-0.15,0.19c-0.05,0.06-0.1,0.13-0.16,0.2
		c-0.05,0.06-0.11,0.13-0.17,0.2c-0.17,0.2-0.35,0.41-0.55,0.63c-0.04,0.05-0.09,0.1-0.13,0.15c-0.01,0.01-0.02,0.02-0.03,0.03
		c-0.05,0.05-0.1,0.11-0.15,0.17c-0.02,0.02-0.04,0.04-0.06,0.07l-0.03,0.03c-0.05,0.05-0.09,0.1-0.14,0.16
		c-0.03,0.04-0.07,0.08-0.11,0.11c-0.03,0.03-0.06,0.07-0.09,0.1c-0.03,0.03-0.06,0.06-0.09,0.1c-0.1,0.11-0.21,0.23-0.32,0.35
		c-0.12,0.13-0.24,0.26-0.36,0.39l-0.09,0.09c-0.13,0.13-0.26,0.28-0.4,0.42l-0.02,0.02c-0.16,0.16-0.32,0.33-0.49,0.5
		C89.93,118.69,89.76,118.87,89.57,119.06z"/>
	<path class="st12" d="M84.96,108.61c-0.08,0.07-0.17,0.14-0.25,0.22c0.04-0.04,0.08-0.07,0.12-0.11c0.94-0.86,1.36-1.18,1.36-1.18
		c0.56-0.51,1.1-0.87,1.61-1.12c-0.05,0.03-0.1,0.06-0.15,0.09c-0.05,0.03-0.11,0.06-0.16,0.1c-0.11,0.07-0.23,0.14-0.35,0.22
		c-0.01,0.01-0.03,0.02-0.04,0.03c-0.17,0.12-0.34,0.24-0.52,0.38c-0.24,0.18-0.5,0.39-0.77,0.62c-0.07,0.06-0.14,0.11-0.21,0.18
		C85.4,108.22,85.18,108.41,84.96,108.61z"/>
	<path class="st12" d="M59.26,136.97c-0.13,0.16-0.24,0.29-0.36,0.43c0.06-0.07,0.12-0.14,0.17-0.21
		c12.42-14.98,19.83-22.75,23.69-26.52c-0.4,0.39-0.81,0.8-1.22,1.22c-0.15,0.15-0.29,0.29-0.44,0.45
		c-0.36,0.36-0.72,0.73-1.08,1.11c-0.27,0.28-0.54,0.57-0.82,0.86c-0.41,0.44-0.83,0.88-1.26,1.34c-0.28,0.3-0.57,0.61-0.85,0.92
		c-2.44,2.63-5.01,5.5-7.43,8.27c-0.27,0.3-0.53,0.6-0.79,0.9c-0.65,0.73-1.28,1.46-1.89,2.18c-0.16,0.18-0.31,0.36-0.46,0.53
		c-0.24,0.28-0.48,0.55-0.72,0.83c-0.14,0.16-0.27,0.31-0.4,0.47c-0.15,0.17-0.29,0.34-0.43,0.51c-0.32,0.37-0.62,0.72-0.92,1.08
		c-0.23,0.26-0.46,0.53-0.68,0.79c-0.5,0.58-0.97,1.14-1.41,1.66c-0.16,0.18-0.31,0.36-0.46,0.54c-0.17,0.2-0.33,0.39-0.49,0.58
		c-0.23,0.26-0.44,0.51-0.64,0.76c-0.13,0.16-0.26,0.31-0.38,0.45c-0.09,0.11-0.18,0.21-0.26,0.31
		C59.56,136.61,59.41,136.8,59.26,136.97z"/>
	<path class="st12" d="M58.8,137.52c-0.03,0.03-0.05,0.06-0.08,0.09l0,0C58.75,137.58,58.77,137.55,58.8,137.52z"/>
	<path class="st12" d="M58.6,137.76c-0.03,0.03-0.05,0.06-0.08,0.09l-0.02,0.02C58.53,137.84,58.56,137.8,58.6,137.76z"/>
	<path class="st12" d="M92.77,107.41c-0.08-0.07-0.15-0.14-0.23-0.21c-0.06-0.05-0.12-0.1-0.18-0.15c-0.04-0.03-0.08-0.06-0.12-0.09
		c-0.13-0.1-0.26-0.19-0.4-0.27c-0.08-0.05-0.16-0.09-0.24-0.14c-0.07-0.04-0.14-0.08-0.22-0.11c-0.07-0.04-0.15-0.07-0.22-0.1
		c-0.1-0.04-0.19-0.08-0.29-0.11c0.14,0.04,0.27,0.09,0.39,0.15c0.23,0.1,0.43,0.21,0.63,0.33c0.13,0.08,0.25,0.16,0.36,0.24
		c0.05,0.04,0.1,0.08,0.15,0.11c0.04,0.03,0.09,0.07,0.13,0.1c0.21,0.18,0.38,0.34,0.51,0.47l0.08,0.08
		c0.03,0.04,0.06,0.07,0.08,0.09l0.01,0.01c0.01,0.01,0.02,0.02,0.02,0.03l0.01,0.01c0,0,0.01,0.01,0.01,0.01l-0.09-0.09
		c-0.01-0.01-0.03-0.03-0.05-0.04c-0.03-0.03-0.06-0.05-0.09-0.08l0.01-0.01l-0.03-0.03C92.92,107.55,92.85,107.48,92.77,107.41z"/>
	<path class="st12" d="M93.29,107.93c-0.01-0.02-0.03-0.04-0.04-0.05c0.01,0,0.01,0.01,0.01,0.01l0.01,0.01
		C93.28,107.92,93.29,107.93,93.29,107.93z"/>
	<path class="st12" d="M60.18,140.86c0.03,0.03,0.06,0.06,0.09,0.08l-0.04,0.04l-0.09-0.09l-0.09-0.09l-0.46-0.5
		c0.16,0.16,0.32,0.31,0.49,0.47l0.01-0.01c0.03,0.03,0.05,0.06,0.08,0.09L60.18,140.86z"/>
</g>
</svg>
