<?xml version="1.0" encoding="utf-8"?>
<!-- Generator: Adobe Illustrator 27.5.0, SVG Export Plug-In . SVG Version: 6.00 Build 0)  -->
<svg version="1.1" id="Layer_1" xmlns="http://www.w3.org/2000/svg" xmlns:xlink="http://www.w3.org/1999/xlink" x="0px" y="0px"
	 viewBox="0 0 200 200" style="enable-background:new 0 0 200 200;" xml:space="preserve">
<style type="text/css">
	.st0{fill:#CDCC34;stroke:#CDCC34;stroke-width:0.75;stroke-miterlimit:10;}
	.st1{opacity:0.67;fill:#F4E72F;stroke:#FECB39;stroke-width:3;stroke-miterlimit:10;}
	.st2{opacity:0.94;fill:#48AE4D;}
	.st3{font-family:'Arimo-Medium';}
	.st4{font-size:22.9443px;}
	.st5{opacity:0.94;fill:none;stroke:#48AE4D;stroke-width:4;stroke-miterlimit:10;}
	.st6{fill:#EBC1A9;}
	.st7{fill:#D2824D;stroke:#8C633A;stroke-width:2;stroke-miterlimit:10;}
	.st8{fill:none;stroke:#343434;stroke-width:6;stroke-miterlimit:10;}
	.st9{fill:none;stroke:#D2824D;stroke-width:11;stroke-miterlimit:10;}
	.st10{fill:#A3D9EC;stroke:#B44531;stroke-width:3;stroke-miterlimit:10;}
	.st11{fill:none;stroke:#B44531;stroke-width:3;stroke-miterlimit:10;}
	.st12{fill:none;stroke:#C1292E;stroke-width:6;stroke-miterlimit:10;}
	.st13{fill:#C1292E;}
	.st14{fill:#8C633A;stroke:#D2824D;stroke-miterlimit:10;}
</style>
<g id="MONEDA_00000018212179618889985570000009498095953174520745_">
	<circle class="st0" cx="133.39" cy="22.87" r="18.07"/>
	<circle class="st1" cx="133.39" cy="22.87" r="14.05"/>
	<text transform="matrix(1 0 0 1 126.0112 30.8515)" class="st2 st3 st4">S</text>
	<line class="st5" x1="133.39" y1="12.55" x2="133.39" y2="15.42"/>
	<line class="st5" x1="133.65" y1="30.36" x2="133.65" y2="33.23"/>
</g>
<polygon class="st6" points="43.41,110.59 43.41,194.18 163.69,194.18 163.69,112.63 101.51,68.8 "/>
<rect x="120.88" y="136.07" class="st7" width="33.64" height="57.08"/>
<line class="st8" x1="23.02" y1="195.19" x2="184.08" y2="195.19"/>
<polyline class="st9" points="24.04,119.76 101.51,62.68 180,118.74 "/>
<rect x="57.68" y="120.78" class="st10" width="22.43" height="23.44"/>
<rect x="80.1" y="120.78" class="st10" width="23.44" height="23.44"/>
<rect x="80.1" y="144.23" class="st10" width="23.44" height="22.43"/>
<rect x="57.68" y="144.23" class="st10" width="22.43" height="22.43"/>
<path class="st11" d="M80.1,173.79"/>
<line class="st11" x1="80.1" y1="167.3" x2="80.1" y2="166.65"/>
<line class="st11" x1="80.1" y1="120.78" x2="80.1" y2="120.47"/>
<line class="st11" x1="104.62" y1="144.23" x2="103.55" y2="144.23"/>
<line class="st11" x1="57.68" y1="144.23" x2="57.58" y2="144.23"/>
<g>
	<g>
		<polyline class="st12" points="2.63,105.49 101.51,34.14 136.17,61.66 177.01,34.65 		"/>
		<g>
			<path class="st13" d="M199.37,19.87c-7.94,10.86-16.58,26.14-20.01,38.55l-5.28-21.83l-18.02-13.4
				C168.82,24.9,186.27,22.93,199.37,19.87z"/>
		</g>
	</g>
</g>
<circle class="st14" cx="149.93" cy="167.16" r="2.04"/>
</svg>
